#N canvas 3841 58 1278 1377 10;
#X obj 33 -148 udpreceive 9999;
#X msg 33 -175 port 9999;
#X obj 33 -199 loadbang;
#X obj 33 41 routeOSC /pad/1 /pad/2 /pad/3 /pad/4;
#X obj 236 163 vsl 22 128 0 1 0 0 \$0-pad_1 empty Right 0 -9 0 10 -4034
-1 -1 995 1;
#X obj 154 163 vsl 22 128 0 1 0 0 \$0-pad_2 empty Back 0 -9 0 10 -4034
-1 -1 710 1;
#X obj 196 163 vsl 22 128 0 1 0 0 \$0-pad_3 empty Left 0 -9 0 10 -4034
-1 -1 0 1;
#X obj 115 163 vsl 22 128 0 1 0 0 \$0-pad_4 empty Front 0 -9 0 10 -4034
-1 -1 1266 1;
#X obj 508 164 vsl 22 128 4000 0 0 0 empty empty Pos 0 -9 0 10 -257985
-1 -1 0 1;
#X obj 547 164 vsl 22 128 0 300 0 0 empty empty Force 0 -9 0 10 -257985
-1 -1 0 1;
#X obj 310 164 vsl 22 128 0 1 0 0 \$0-valve_1 empty 1 0 -9 0 10 -258113
-1 -1 0 1;
#X obj 349 164 vsl 22 128 0 1 0 0 \$0-valve_2 empty 2 0 -9 0 10 -258113
-1 -1 0 1;
#X obj 388 164 vsl 22 128 0 1 0 0 \$0-valve_3 empty 3 0 -9 0 10 -258113
-1 -1 0 1;
#X obj 428 164 vsl 22 128 0 1 0 0 \$0-valve_4 empty 4 0 -9 0 10 -258113
-1 -1 0 1;
#X obj 267 41 routeOSC /valve/1 /valve/2 /valve/3 /valve/4;
#X text 353 136 VALVES;
#X obj 33 -125 unpackOSC;
#X obj 33 -14 routeOSC /bong/\$1;
#X text 537 131 RIBBON;
#X floatatom 508 299 5 0 0 0 - - -, f 5;
#X floatatom 547 299 5 0 0 0 - - -, f 5;
#X obj 916 41 routeOSC /orientation/roll /orientation/pitch /orientation/heading
, f 71;
#X obj 290 568 +;
#X obj 290 621 +;
#X obj 811 147 bng 15 250 50 0 empty empty Receiving 17 7 0 10 -262144
-1 -1;
#X floatatom 818 306 5 0 3 2 Sys - -, f 5;
#X floatatom 857 305 5 0 3 2 Gyro - -, f 5;
#X floatatom 899 306 5 0 3 2 Mag - -, f 5;
#X floatatom 938 306 5 0 3 2 Accel - -, f 5;
#X obj 1008 233 routeOSC /cal/gyro;
#X obj 1008 260 routeOSC /cal/mag;
#X obj 1007 288 routeOSC /cal/accel;
#X obj 1009 208 routeOSC /cal/sys;
#X floatatom 370 725 5 0 0 0 - - -, f 5;
#X obj 290 542 max 0;
#X obj 329 542 max 0;
#X obj 368 542 max 0;
#X obj 408 542 max 0;
#X obj 811 733 s PITCH_SHIFT;
#X floatatom 811 505 5 0 0 0 - - -, f 5;
#X obj 447 542 > 0.1;
#X obj 447 570 +;
#X obj 486 542 > 0.1;
#X obj 447 596 +;
#X obj 526 542 > 0.1;
#X obj 447 621 +;
#X obj 563 542 > 0.1;
#X obj 370 639 /;
#X obj 811 691 list prepend;
#X obj 810 174 tgl 22 0 empty empty Roll_to_pitch_shift 25 10 0 10
-260097 -1 -1 0 1;
#X obj 811 712 route 1;
#X floatatom 811 623 5 0 0 0 - - -, f 5;
#X obj 811 452 / 180;
#X msg 811 541 1;
#X obj 811 571 +, f 5;
#X floatatom 956 172 5 0 0 0 - - -, f 5;
#X obj 811 475 * 2;
#X obj 811 668 min 4;
#X obj 811 645 max 0.01;
#X obj 33 -85 list prepend;
#X obj 809 111 tgl 22 0 empty empty Active 25 10 0 15 -260097 -1 -1
1 1;
#X obj 33 -57 route 1;
#X obj 811 599 pow 1;
#X obj 651 765 route 1;
#X obj 370 747 list prepend 1;
#X obj 651 587 list prepend 2;
#X obj 651 541 / 180;
#X obj 813 216 vradio 15 1 0 3 empty empty Pitch_mod 0 -10 0 12 -260097
-1 -1 1;
#X text 833 245 IMU;
#X obj 651 564 * 4;
#X obj 370 678 - 0.75;
#X obj 370 701 * 1.5;
#X obj 479 -49 counter;
#X obj 479 -80 bng 15 250 50 0 empty empty empty 17 7 0 10 -262144
-1 -1;
#X floatatom 893 146 5 0 0 1 Packets/s - -, f 5;
#X obj 557 -78 metro 1000;
#X obj 557 -113 tgl 15 0 empty empty empty 17 7 0 10 -262144 -1 -1
1 1;
#X obj 493 -4 i, f 7;
#X msg 507 -80 set 0;
#X msg 538 -28 0;
#X obj 538 -50 t b b b;
#X msg 478 -131 1;
#X obj 552 41 routeOSC /ribbon/position /ribbon/pressure /ribbon/octave
;
#X obj 588 164 vsl 22 128 -5 5 0 0 OCTAVE empty Octave 0 -9 0 10 -257985
-1 -1 0 1;
#X floatatom 588 299 5 0 0 0 - - -, f 5;
#X obj -194 105 r \$0-pad_1;
#X obj -120 105 r \$0-pad_2;
#X obj -51 106 r \$0-pad_3;
#X obj 19 107 r \$0-pad_4;
#X floatatom -120 198 5 0 0 0 - - -, f 5;
#X floatatom -51 198 5 0 0 0 - - -, f 5;
#X floatatom 19 194 5 0 0 0 - - -, f 5;
#X obj -194 215 +;
#X obj -66 381 +;
#X obj -66 410 +;
#X floatatom -66 431 5 0 0 0 - - -, f 5;
#X floatatom -66 476 5 0 0 0 - - -, f 5;
#X obj -66 453 - 0;
#X obj -66 498 / 3;
#X obj -66 521 pow 2;
#X obj 19 269 s PAD_front;
#X obj -120 270 s PAD_rear;
#X obj -194 148 max 0;
#X obj -120 148 max 0;
#X obj -51 148 max 0;
#X obj 19 147 max 0;
#X obj -66 544 line 5;
#X obj 19 222 line 100;
#X obj -120 223 line 100;
#X obj 19 246 * 0.99;
#X obj -120 248 * 0.99;
#X floatatom 428 337 5 0 0 0 OFFSET - -, f 5;
#X floatatom 349 337 5 0 0 0 MIDI_note - -, f 5;
#X obj 1118 472 +;
#X obj 1118 546 s PITCH;
#X obj 1118 498 +;
#X obj 1124 421 + 55;
#X floatatom 1118 521 5 0 0 0 - - -, f 5;
#X obj 1246 475 r OCTAVE, f 13;
#X floatatom 1246 498 5 0 0 0 - - -, f 5;
#X obj 1246 520 * 12;
#X obj 1157 421 >= 1;
#X floatatom 1157 444 5 0 0 0 - - -, f 5;
#X obj 1157 466 select 1;
#X floatatom 1202 514 5 0 0 0 - - -, f 5;
#X msg 1157 496 1;
#X msg 1202 491 0;
#X obj 1202 538 *;
#X floatatom 1202 561 5 0 0 0 - - -, f 5;
#X floatatom 1157 400 5 0 0 0 - - -, f 5;
#X obj 1118 373 moses 1;
#X floatatom 1118 339 5 0 0 0 - - -, f 5;
#X obj 1094 391 bng 15 250 50 0 empty empty empty 17 7 0 10 -262144
-1 -1;
#X obj 1118 313 routeOSC /note, f 16;
#X obj 651 164 vsl 22 128 -180 180 0 0 IMU_roll empty Roll 0 -9 0 10
-4160 -1 -1 8381 1;
#X obj 699 164 vsl 22 128 -180 180 0 0 IMU_pitch empty Pitch 0 -9 0
10 -4160 -1 -1 3259 1;
#X obj 745 164 vsl 22 128 -180 180 0 0 IMU_head empty Heading 0 -9
0 10 -4160 -1 -1 9230 1;
#X floatatom 651 299 5 0 0 0 - - -, f 5;
#X floatatom 699 299 5 0 0 0 - - -, f 5;
#X floatatom 745 299 5 0 0 0 - - -, f 5;
#X text 831 266 Calibration status:;
#X text 167 133 PADS;
#X floatatom 115 298 5 0 0 0 - - -, f 5;
#X floatatom 196 298 5 0 0 0 - - -, f 5;
#X floatatom 154 298 5 0 0 0 - - -, f 5;
#X floatatom 236 298 5 0 0 0 - - -, f 5;
#X floatatom 310 299 5 0 0 0 - - -, f 5;
#X floatatom 388 299 5 0 0 0 - - -, f 5;
#X floatatom 349 299 5 0 0 0 - - -, f 5;
#X floatatom 428 299 5 0 0 0 - - -, f 5;
#X text 696 125 IMU;
#X text 833 229 Valves;
#X text 833 214 None;
#X floatatom -66 569 5 0 0 0 - - -, f 5;
#X obj -66 615 * 127;
#X obj -66 663 max 0;
#X obj -66 591 - 0.1;
#X obj -66 686 min 126;
#X obj -66 638 * 1.1;
#X text 119 375 Sends: PAD_front \, PAD_rear \, AM \, PITCH \, PITCH_SHIFT
\, IMU_roll \, IMU_pitch \, IMU_head, f 84;
#X obj 290 594 +;
#X msg 1118 397 0;
#X obj -66 712 s AM;
#X obj 290 511 r \$0-valve_1;
#X obj 367 511 r \$0-valve_2;
#X obj 444 511 r \$0-valve_3;
#X obj 521 511 r \$0-valve_4;
#X connect 0 0 16 0;
#X connect 0 0 73 0;
#X connect 0 0 24 0;
#X connect 1 0 0 0;
#X connect 2 0 1 0;
#X connect 2 0 81 0;
#X connect 3 0 4 0;
#X connect 3 1 5 0;
#X connect 3 2 6 0;
#X connect 3 3 7 0;
#X connect 3 4 14 0;
#X connect 4 0 145 0;
#X connect 5 0 144 0;
#X connect 6 0 143 0;
#X connect 7 0 142 0;
#X connect 8 0 19 0;
#X connect 9 0 20 0;
#X connect 10 0 146 0;
#X connect 11 0 148 0;
#X connect 12 0 147 0;
#X connect 13 0 149 0;
#X connect 14 0 10 0;
#X connect 14 1 11 0;
#X connect 14 2 12 0;
#X connect 14 3 13 0;
#X connect 14 4 82 0;
#X connect 16 0 59 0;
#X connect 17 0 3 0;
#X connect 21 0 134 0;
#X connect 21 1 135 0;
#X connect 21 2 136 0;
#X connect 21 3 32 0;
#X connect 22 0 160 0;
#X connect 23 0 47 0;
#X connect 29 0 26 0;
#X connect 29 1 30 0;
#X connect 30 0 27 0;
#X connect 30 1 31 0;
#X connect 31 0 28 0;
#X connect 31 1 133 0;
#X connect 32 0 25 0;
#X connect 32 1 29 0;
#X connect 33 0 64 0;
#X connect 34 0 22 0;
#X connect 35 0 22 1;
#X connect 36 0 160 1;
#X connect 37 0 23 1;
#X connect 39 0 53 0;
#X connect 39 0 54 1;
#X connect 40 0 41 0;
#X connect 41 0 43 0;
#X connect 42 0 41 1;
#X connect 43 0 45 0;
#X connect 44 0 43 1;
#X connect 45 0 47 1;
#X connect 46 0 45 1;
#X connect 47 0 70 0;
#X connect 48 0 50 0;
#X connect 49 0 48 1;
#X connect 50 0 38 0;
#X connect 51 0 58 0;
#X connect 52 0 56 0;
#X connect 53 0 54 0;
#X connect 54 0 62 0;
#X connect 56 0 39 0;
#X connect 57 0 48 0;
#X connect 57 0 55 0;
#X connect 58 0 57 0;
#X connect 59 0 61 0;
#X connect 60 0 59 1;
#X connect 61 0 17 0;
#X connect 62 0 51 0;
#X connect 63 0 111 0;
#X connect 64 0 63 0;
#X connect 65 0 63 0;
#X connect 66 0 69 0;
#X connect 67 0 63 1;
#X connect 69 0 65 0;
#X connect 70 0 71 0;
#X connect 71 0 33 0;
#X connect 72 0 77 1;
#X connect 73 0 72 0;
#X connect 75 0 80 0;
#X connect 76 0 75 0;
#X connect 77 0 74 0;
#X connect 78 0 72 0;
#X connect 79 0 77 1;
#X connect 80 0 79 0;
#X connect 80 1 78 0;
#X connect 80 2 77 0;
#X connect 81 0 76 0;
#X connect 82 0 8 0;
#X connect 82 1 9 0;
#X connect 82 2 83 0;
#X connect 82 3 21 0;
#X connect 83 0 84 0;
#X connect 85 0 102 0;
#X connect 86 0 103 0;
#X connect 87 0 104 0;
#X connect 88 0 105 0;
#X connect 89 0 92 1;
#X connect 89 0 108 0;
#X connect 90 0 93 1;
#X connect 91 0 94 1;
#X connect 91 0 107 0;
#X connect 92 0 93 0;
#X connect 93 0 94 0;
#X connect 94 0 95 0;
#X connect 95 0 97 0;
#X connect 96 0 98 0;
#X connect 97 0 96 0;
#X connect 98 0 99 0;
#X connect 99 0 106 0;
#X connect 102 0 92 0;
#X connect 103 0 89 0;
#X connect 104 0 90 0;
#X connect 105 0 91 0;
#X connect 106 0 153 0;
#X connect 107 0 109 0;
#X connect 108 0 110 0;
#X connect 109 0 100 0;
#X connect 110 0 101 0;
#X connect 111 0 113 1;
#X connect 112 0 113 0;
#X connect 113 0 115 0;
#X connect 115 0 117 0;
#X connect 116 0 112 0;
#X connect 117 0 114 0;
#X connect 118 0 119 0;
#X connect 119 0 120 0;
#X connect 120 0 127 1;
#X connect 121 0 122 0;
#X connect 122 0 123 0;
#X connect 123 0 125 0;
#X connect 123 1 126 0;
#X connect 124 0 127 0;
#X connect 125 0 124 0;
#X connect 126 0 124 0;
#X connect 127 0 128 0;
#X connect 128 0 115 1;
#X connect 129 0 121 0;
#X connect 129 0 116 0;
#X connect 130 0 161 0;
#X connect 130 0 132 0;
#X connect 130 1 129 0;
#X connect 131 0 130 0;
#X connect 133 0 131 0;
#X connect 134 0 52 0;
#X connect 134 0 66 0;
#X connect 134 0 137 0;
#X connect 135 0 138 0;
#X connect 136 0 139 0;
#X connect 153 0 156 0;
#X connect 154 0 158 0;
#X connect 155 0 157 0;
#X connect 156 0 154 0;
#X connect 157 0 162 0;
#X connect 158 0 155 0;
#X connect 160 0 23 0;
#X connect 161 0 113 0;
#X connect 161 0 121 0;
#X connect 163 0 34 0;
#X connect 163 0 40 0;
#X connect 164 0 35 0;
#X connect 164 0 42 0;
#X connect 165 0 36 0;
#X connect 165 0 44 0;
#X connect 166 0 37 0;
#X connect 166 0 46 0;
#X coords 0 -1 1 1 900 300 1 100 100;
