#N canvas 586 482 1333 597 10;
#X obj 95 -167 udpreceive 9999;
#X obj 95 -134 unpackOSC;
#X msg 95 -194 port 9999;
#X floatatom 113 141 5 0 0 0 - - -, f 5;
#X floatatom 113 175 5 0 0 0 - - -, f 5;
#X floatatom 114 207 5 0 0 0 - - -, f 5;
#X floatatom 245 198 5 0 0 0 - - -, f 5;
#X obj 306 52 line;
#X msg 305 28 \$1 50;
#X obj 95 -218 loadbang;
#X obj 299 -30 routeOSC /roll_x /roll_y;
#X floatatom 244 150 5 0 0 0 - - -, f 5;
#X obj 354 49 line;
#X msg 353 25 \$1 50;
#X obj -296 4 routeOSC /velocity /note_pitch /note_pressure, f 47
;
#X obj 54 32 routeOSC /dirX_push /dirY_push;
#X floatatom 181 199 5 0 0 0 - - -, f 5;
#X floatatom 183 150 5 0 0 0 - - -, f 5;
#X text 106 126 INTENSITY;
#X text 112 160 NOTE;
#X text 115 193 MOD;
#X text 186 176 X;
#X text 184 127 Y;
#X floatatom 350 185 5 0 0 0 - - -, f 5;
#X obj 350 150 routeOSC /mag_x /mag_y /mag_z;
#X floatatom 407 189 5 0 0 0 - - -, f 5;
#X floatatom 465 190 5 0 0 0 - - -, f 5;
#X obj 148 269 outlet;
#X obj 100 270 outlet;
#X obj 209 272 outlet;
#X obj 275 266 outlet;
#X connect 0 0 1 0;
#X connect 1 0 10 0;
#X connect 1 0 14 0;
#X connect 1 0 15 0;
#X connect 1 0 24 0;
#X connect 2 0 0 0;
#X connect 3 0 28 0;
#X connect 4 0 27 0;
#X connect 5 0 29 0;
#X connect 7 0 6 0;
#X connect 8 0 7 0;
#X connect 9 0 2 0;
#X connect 10 0 8 0;
#X connect 10 1 13 0;
#X connect 11 0 30 0;
#X connect 12 0 11 0;
#X connect 13 0 12 0;
#X connect 14 0 3 0;
#X connect 14 1 4 0;
#X connect 14 2 5 0;
#X connect 15 0 16 0;
#X connect 15 1 17 0;
#X connect 24 0 23 0;
#X connect 24 1 25 0;
#X connect 24 2 26 0;
#X coords 0 -1 1 1 400 150 1 100 100;
