#N canvas 479 223 1440 856 10;
#X obj 108 -294 udpreceive 9999;
#X msg 108 -321 port 9999;
#X floatatom 36 92 5 0 0 0 - - -, f 5;
#X floatatom -121 100 5 0 0 0 - - -, f 5;
#X floatatom 37 158 5 0 0 0 - - -, f 5;
#X obj 108 -345 loadbang;
#X text 29 77 INTENSITY;
#X text 35 111 NOTE;
#X text 38 144 MOD;
#X obj 67 11 routeOSC /pad/1 /pad/2 /pad/3 /pad/4;
#X text 167 161 PAD;
#X obj 116 191 vsl 22 128 0 1 0 0 empty empty empty 0 -9 0 10 -4034
-1 -1 0 1;
#X obj 152 191 vsl 22 128 0 1 0 0 empty empty empty 0 -9 0 10 -4034
-1 -1 0 1;
#X obj 188 191 vsl 22 128 0 1 0 0 empty empty empty 0 -9 0 10 -4034
-1 -1 0 1;
#X obj 223 191 vsl 22 128 0 1 0 0 empty empty empty 0 -9 0 10 -4034
-1 -1 63 1;
#X obj 508 193 vsl 22 128 4000 0 0 0 empty empty empty 0 -9 0 10 -257985
-1 -1 10182 1;
#X obj 593 80 routeOSC /ribbon/position /ribbon/pressure;
#X obj 545 193 vsl 22 128 0 300 0 0 empty empty empty 0 -9 0 10 -257985
-1 -1 254 1;
#X obj 310 192 vsl 22 128 0 1 0 0 empty empty empty 0 -9 0 10 -258113
-1 -1 0 1;
#X obj 346 192 vsl 22 128 0 1 0 0 empty empty empty 0 -9 0 10 -258113
-1 -1 0 1;
#X obj 382 192 vsl 22 128 0 1 0 0 empty empty empty 0 -9 0 10 -258113
-1 -1 473 1;
#X obj 418 192 vsl 22 128 0 1 0 0 empty empty empty 0 -9 0 10 -258113
-1 -1 0 1;
#X obj 306 11 routeOSC /valve/1 /valve/2 /valve/3 /valve/4;
#X text 353 164 VALVES;
#X floatatom 114 375 5 0 0 0 - - -, f 5;
#X floatatom 150 375 5 0 0 0 - - -, f 5;
#X floatatom 186 375 5 0 0 0 - - -, f 5;
#X floatatom 221 375 5 0 0 0 - - -, f 5;
#X floatatom 309 390 5 0 0 0 - - -, f 5;
#X floatatom 348 389 5 0 0 0 - - -, f 5;
#X floatatom 384 389 5 0 0 0 - - -, f 5;
#X floatatom 420 389 5 0 0 0 - - -, f 5;
#X obj 108 -271 unpackOSC;
#X obj 96 -120 routeOSC /bong/\$1;
#X text 518 168 RIBBON;
#X floatatom 508 329 5 0 0 0 - - -, f 5;
#X floatatom 545 329 5 0 0 0 - - -, f 5;
#X text 509 346 pos;
#X text 543 349 force;
#X floatatom 655 208 5 0 0 0 - - -, f 5;
#X obj 824 148 routeOSC /orientation/roll /orientation/pitch /orientation/heading
, f 71;
#X floatatom 705 209 5 0 0 0 - - -, f 5;
#X floatatom 750 209 5 0 0 0 - - -, f 5;
#X obj 655 232 vsl 22 128 -180 180 0 0 empty empty empty 0 -9 0 10
-4160 -1 -1 6348 1;
#X obj 705 231 vsl 22 128 -180 180 0 0 empty empty empty 0 -9 0 10
-4160 -1 -1 6279 1;
#X obj 750 233 vsl 22 128 -180 180 0 0 empty empty empty 0 -9 0 10
-4160 -1 -1 5532 1;
#X text 697 172 AHRS;
#X obj -73 462 +;
#X obj -73 485 +;
#X obj -73 513 +;
#X floatatom -75 539 5 0 0 0 - - -, f 5;
#X floatatom -75 584 5 0 0 0 - - -, f 5;
#X obj -296 4 routeOSC /intensity /note /note_pressure, f 47;
#X obj 27 227 outlet;
#X obj 362 709 outlet;
#X obj -75 561 - 0;
#X obj 318 471 +;
#X obj 357 473 +;
#X obj 403 471 +;
#X obj 280 109 bng 15 250 50 0 empty empty Receiving 17 7 0 10 -262144
-1 -1;
#X text 653 184 roll;
#X text 702 186 pitch;
#X text 748 186 head;
#X obj 997 443 s IMU_pitch;
#X obj 999 400 s IMU_head;
#X obj 1000 486 s IMU_roll;
#X obj -75 606 / 3;
#X obj -220 -302 tgl 15 0 empty empty empty 17 7 0 10 -262144 -1 -1
0 1;
#X floatatom -210 -269 5 0 0 0 - - -, f 5;
#X obj -200 -297 bang;
#X obj -204 -215 print;
#X obj -141 -303 list fromsymbol;
#X obj -206 -245 pack 0 l;
#X floatatom 641 129 5 0 0 0 - - -, f 5;
#X floatatom 680 128 5 0 0 0 - - -, f 5;
#X floatatom 722 129 5 0 0 0 - - -, f 5;
#X floatatom 761 129 5 0 0 0 - - -, f 5;
#X text 680 99 Calilbration;
#X text 641 148 sys;
#X obj 845 -19 routeOSC /cal/gyro;
#X obj 883 24 routeOSC /cal/mag;
#X obj 926 77 routeOSC /cal/accel;
#X text 680 147 gyro;
#X text 722 148 mag;
#X text 761 148 accel;
#X obj 748 -51 routeOSC /cal/sys;
#X text 659 1071 GYRO;
#X text 116 985 X;
#X text 114 1017 Y;
#X text 115 1051 Z;
#X floatatom 135 986 5 0 0 0 - - -, f 5;
#X floatatom 135 1018 5 0 0 0 - - -, f 5;
#X floatatom 135 1050 5 0 0 0 - - -, f 5;
#X obj 176 986 hsl 128 15 -1 1 0 0 empty empty empty -2 -8 0 10 -4032
-1 -1 0 1;
#X obj 176 1046 hsl 128 15 -1 1 0 0 empty empty empty -2 -8 0 10 -4032
-1 -1 0 1;
#X obj -111 866 routeOSC /mag/x /mag/y /mag/z;
#X obj 176 1016 hsl 128 15 -1 1 0 0 empty empty empty -2 -8 0 10 -4032
-1 -1 0 1;
#X floatatom 355 986 5 0 0 0 - - -, f 5;
#X floatatom 355 1018 5 0 0 0 - - -, f 5;
#X floatatom 355 1050 5 0 0 0 - - -, f 5;
#X obj 393 986 hsl 128 15 -10 10 0 0 empty empty empty -2 -8 0 10 -4032
-1 -1 0 1;
#X obj 393 1046 hsl 128 15 -10 10 0 0 empty empty empty -2 -8 0 10
-4032 -1 -1 0 1;
#X obj 393 1016 hsl 128 15 -10 10 0 0 empty empty empty -2 -8 0 10
-4032 -1 -1 0 1;
#X obj 311 899 routeOSC /accel/x /accel/y /accel/z;
#X floatatom 578 986 5 0 0 0 - - -, f 5;
#X floatatom 578 1018 5 0 0 0 - - -, f 5;
#X floatatom 578 1050 5 0 0 0 - - -, f 5;
#X obj 618 986 hsl 128 15 -100 100 0 0 empty empty empty -2 -8 0 10
-4032 -1 -1 0 1;
#X obj 618 1046 hsl 128 15 -100 100 0 0 empty empty empty -2 -8 0 10
-4032 -1 -1 0 1;
#X obj 618 1016 hsl 128 15 -100 100 0 0 empty empty empty -2 -8 0 10
-4032 -1 -1 0 1;
#X obj 566 956 routeOSC /gyro/x /gyro/y /gyro/z;
#X text 188 960 MAGNETIC;
#X text 419 960 ACCEL;
#X text 337 982 X;
#X text 335 1014 Y;
#X text 336 1048 Z;
#X text 561 985 X;
#X text 559 1017 Y;
#X text 560 1051 Z;
#X obj 1058 -98 cnv 111 144 211 empty empty empty 20 12 0 14 -228856
-66577 0;
#X floatatom 376 654 5 0 0 0 - - -, f 5;
#X floatatom 469 601 5 0 0 0 - - -, f 5;
#X floatatom 544 604 5 0 0 0 - - -, f 5;
#X obj 521 650 +;
#X floatatom 521 696 5 0 0 0 - - -, f 5;
#X obj 546 741 s OCTAVE;
#X obj 469 578 > 1200;
#X obj 544 581 > 1800;
#X obj -75 629 pow 2;
#X obj 308 342 max 0;
#X obj 347 342 max 0;
#X obj 382 328 max 0;
#X obj 418 328 max 0;
#X obj 194 514 s PAD_front;
#X obj 98 516 s PAD_rear;
#X obj 114 348 max 0;
#X obj 153 348 max 0;
#X obj 188 334 max 0;
#X obj 224 334 max 0;
#X obj 649 458 moses 2000;
#X floatatom 697 553 5 0 0 0 - - -, f 5;
#X obj 699 506 - 2000;
#X obj 697 575 / 2000;
#X obj 702 633 s PITCH_SHIFT;
#X floatatom 697 598 5 0 0 0 - - -, f 5;
#X floatatom 655 391 5 0 0 0 - - -, f 5;
#X floatatom 114 420 5 0 0 0 - - -, f 5;
#X obj -75 688 outlet;
#X obj -75 652 line 5;
#X obj 114 442 pow 2;
#X obj 214 463 pow 2;
#X obj 655 368 / 10;
#X obj 214 440 line 100;
#X obj 114 396 line 100;
#X obj 136 674 > 0.1;
#X obj 158 759 +;
#X obj 181 703 > 0.1;
#X obj 216 815 +;
#X obj 239 759 > 0.1;
#X obj 275 823 +;
#X obj 298 767 > 0.1;
#X obj 406 574 /;
#X floatatom 275 846 5 0 0 0 - - -, f 5;
#X connect 0 0 32 0;
#X connect 1 0 0 0;
#X connect 3 0 53 0;
#X connect 5 0 1 0;
#X connect 9 0 11 0;
#X connect 9 1 12 0;
#X connect 9 2 13 0;
#X connect 9 3 14 0;
#X connect 9 4 16 0;
#X connect 11 0 135 0;
#X connect 12 0 136 0;
#X connect 13 0 137 0;
#X connect 14 0 138 0;
#X connect 15 0 35 0;
#X connect 16 0 15 0;
#X connect 16 1 17 0;
#X connect 17 0 36 0;
#X connect 18 0 129 0;
#X connect 18 0 154 0;
#X connect 19 0 130 0;
#X connect 19 0 156 0;
#X connect 20 0 131 0;
#X connect 20 0 158 0;
#X connect 21 0 132 0;
#X connect 21 0 160 0;
#X connect 22 0 18 0;
#X connect 22 1 19 0;
#X connect 22 2 20 0;
#X connect 22 3 21 0;
#X connect 24 0 47 0;
#X connect 24 0 153 0;
#X connect 25 0 47 1;
#X connect 26 0 48 1;
#X connect 27 0 49 1;
#X connect 27 0 152 0;
#X connect 28 0 56 0;
#X connect 29 0 56 1;
#X connect 30 0 57 1;
#X connect 31 0 58 1;
#X connect 32 0 59 0;
#X connect 32 0 33 0;
#X connect 33 0 9 0;
#X connect 33 0 22 0;
#X connect 33 0 40 0;
#X connect 33 0 52 0;
#X connect 33 0 85 0;
#X connect 33 0 79 0;
#X connect 33 0 80 0;
#X connect 33 0 81 0;
#X connect 35 0 139 0;
#X connect 35 0 126 0;
#X connect 35 0 127 0;
#X connect 39 0 43 0;
#X connect 40 0 39 0;
#X connect 40 1 41 0;
#X connect 40 2 42 0;
#X connect 41 0 44 0;
#X connect 42 0 45 0;
#X connect 43 0 65 0;
#X connect 43 0 151 0;
#X connect 44 0 63 0;
#X connect 45 0 64 0;
#X connect 47 0 48 0;
#X connect 48 0 49 0;
#X connect 49 0 50 0;
#X connect 50 0 55 0;
#X connect 51 0 66 0;
#X connect 52 0 2 0;
#X connect 52 1 3 0;
#X connect 52 2 4 0;
#X connect 55 0 51 0;
#X connect 56 0 57 0;
#X connect 57 0 58 0;
#X connect 58 0 161 0;
#X connect 66 0 128 0;
#X connect 67 0 68 0;
#X connect 68 0 72 0;
#X connect 69 0 68 0;
#X connect 71 0 72 1;
#X connect 72 0 70 0;
#X connect 79 0 74 0;
#X connect 80 0 75 0;
#X connect 81 0 76 0;
#X connect 85 0 73 0;
#X connect 90 0 93 0;
#X connect 91 0 96 0;
#X connect 92 0 94 0;
#X connect 95 0 90 0;
#X connect 95 1 91 0;
#X connect 95 2 92 0;
#X connect 97 0 100 0;
#X connect 98 0 102 0;
#X connect 99 0 101 0;
#X connect 103 0 97 0;
#X connect 103 1 98 0;
#X connect 103 2 99 0;
#X connect 104 0 107 0;
#X connect 105 0 109 0;
#X connect 106 0 108 0;
#X connect 110 0 104 0;
#X connect 110 1 105 0;
#X connect 110 2 106 0;
#X connect 120 0 54 0;
#X connect 121 0 123 0;
#X connect 122 0 123 1;
#X connect 123 0 124 0;
#X connect 124 0 125 0;
#X connect 126 0 121 0;
#X connect 127 0 122 0;
#X connect 128 0 148 0;
#X connect 129 0 28 0;
#X connect 130 0 29 0;
#X connect 131 0 30 0;
#X connect 132 0 31 0;
#X connect 135 0 24 0;
#X connect 136 0 25 0;
#X connect 137 0 26 0;
#X connect 138 0 27 0;
#X connect 139 1 141 0;
#X connect 140 0 142 0;
#X connect 141 0 140 0;
#X connect 142 0 144 0;
#X connect 146 0 149 0;
#X connect 148 0 147 0;
#X connect 149 0 134 0;
#X connect 150 0 133 0;
#X connect 151 0 145 0;
#X connect 152 0 150 0;
#X connect 153 0 146 0;
#X connect 154 0 155 0;
#X connect 155 0 157 0;
#X connect 156 0 155 1;
#X connect 157 0 159 0;
#X connect 158 0 157 1;
#X connect 159 0 162 0;
#X connect 160 0 159 1;
#X connect 161 0 120 0;
#X connect 162 0 161 1;
#X coords 0 -1 1 1 700 333 1 100 100;
