#N canvas 0 106 1920 974 10;
#X obj 94 -199 udpreceive 9999;
#X msg 94 -226 port 9999;
#X floatatom 36 92 5 0 0 0 - - -, f 5;
#X floatatom 36 126 5 0 0 0 - - -, f 5;
#X floatatom 37 158 5 0 0 0 - - -, f 5;
#X obj 94 -250 loadbang;
#X obj -296 4 routeOSC /velocity /note_pitch /note_pressure, f 47
;
#X text 29 77 INTENSITY;
#X text 35 111 NOTE;
#X text 38 144 MOD;
#X floatatom 143 498 5 0 0 0 - - -, f 5;
#X floatatom 143 530 5 0 0 0 - - -, f 5;
#X floatatom 143 562 5 0 0 0 - - -, f 5;
#X obj 67 11 routeOSC /pad/1 /pad/2 /pad/3 /pad/4;
#X text 190 143 PAD;
#X obj 192 177 vsl 15 128 0 1024 0 0 empty empty empty 0 -9 0 10 -4034
-1 -1 6015 1;
#X obj 228 177 vsl 15 128 0 1024 0 0 empty empty empty 0 -9 0 10 -4034
-1 -1 4564 1;
#X obj 264 177 vsl 15 128 0 1024 0 0 empty empty empty 0 -9 0 10 -4034
-1 -1 5779 1;
#X obj 299 177 vsl 15 128 0 1024 0 0 empty empty empty 0 -9 0 10 -4034
-1 -1 5494 1;
#X obj 630 183 vsl 15 128 4000 0 0 0 empty empty empty 0 -9 0 10 -257985
-1 -1 6004 1;
#X obj 591 66 routeOSC /ribbon/position /ribbon/pressure;
#X obj 671 184 vsl 15 128 0 300 0 0 empty empty empty 0 -9 0 10 -257985
-1 -1 381 1;
#X obj 427 178 vsl 15 128 0 4000 0 0 empty empty empty 0 -9 0 10 -258113
-1 -1 8315 1;
#X obj 463 178 vsl 15 128 0 4000 0 0 empty empty empty 0 -9 0 10 -258113
-1 -1 10620 1;
#X obj 499 178 vsl 15 128 0 4000 0 0 empty empty empty 0 -9 0 10 -258113
-1 -1 8823 1;
#X obj 535 178 vsl 15 128 0 4000 0 0 empty empty empty 0 -9 0 10 -258113
-1 -1 6331 1;
#X obj 306 11 routeOSC /valve/1 /valve/2 /valve/3 /valve/4;
#X text 448 143 VALVES;
#X floatatom 192 313 5 0 0 0 - - -, f 5;
#X floatatom 228 313 5 0 0 0 - - -, f 5;
#X floatatom 264 313 5 0 0 0 - - -, f 5;
#X floatatom 299 313 5 0 0 0 - - -, f 5;
#X floatatom 427 314 5 0 0 0 - - -, f 5;
#X floatatom 463 314 5 0 0 0 - - -, f 5;
#X floatatom 499 314 5 0 0 0 - - -, f 5;
#X floatatom 535 314 5 0 0 0 - - -, f 5;
#X obj 184 498 hsl 128 15 -1 1 0 0 empty empty empty -2 -8 0 10 -4032
-1 -1 6891 1;
#X obj 184 558 hsl 128 15 -1 1 0 0 empty empty empty -2 -8 0 10 -4032
-1 -1 3500 1;
#X obj 697 380 routeOSC /id;
#X obj 94 -176 unpackOSC;
#X obj -103 378 routeOSC /mag/x /mag/y /mag/z;
#X obj 184 528 hsl 128 15 -1 1 0 0 empty empty empty -2 -8 0 10 -4032
-1 -1 12456 1;
#X floatatom 363 498 5 0 0 0 - - -, f 5;
#X floatatom 363 530 5 0 0 0 - - -, f 5;
#X floatatom 363 562 5 0 0 0 - - -, f 5;
#X obj 401 498 hsl 128 15 -10 10 0 0 empty empty empty -2 -8 0 10 -4032
-1 -1 679 1;
#X obj 401 558 hsl 128 15 -10 10 0 0 empty empty empty -2 -8 0 10 -4032
-1 -1 6747 1;
#X obj 401 528 hsl 128 15 -10 10 0 0 empty empty empty -2 -8 0 10 -4032
-1 -1 3613 1;
#X obj -165 198 routeOSC /accel/x /accel/y /accel/z;
#X floatatom 586 498 5 0 0 0 - - -, f 5;
#X floatatom 586 530 5 0 0 0 - - -, f 5;
#X floatatom 586 562 5 0 0 0 - - -, f 5;
#X obj 626 498 hsl 128 15 -100 100 0 0 empty empty empty -2 -8 0 10
-4032 -1 -1 6346 1;
#X obj 626 558 hsl 128 15 -100 100 0 0 empty empty empty -2 -8 0 10
-4032 -1 -1 6143 1;
#X obj 626 528 hsl 128 15 -100 100 0 0 empty empty empty -2 -8 0 10
-4032 -1 -1 6404 1;
#X obj -347 146 routeOSC /gyro/x /gyro/y /gyro/z;
#X text 196 472 MAGNETIC;
#X text 427 472 ACCEL;
#X text 645 474 GYRO;
#X text 124 497 X;
#X text 122 529 Y;
#X text 123 563 Z;
#X text 345 494 X;
#X text 343 526 Y;
#X text 344 560 Z;
#X text 569 497 X;
#X text 567 529 Y;
#X text 568 563 Z;
#X obj 95 -134 routeOSC /bong/\$1;
#X floatatom 697 403 5 0 0 0 - - -, f 5;
#X text 638 128 RIBBON;
#X floatatom 630 319 5 0 0 0 - - -, f 5;
#X floatatom 671 320 5 0 0 0 - - -, f 5;
#X text 625 156 pos;
#X text 662 157 force;
#X connect 0 0 39 0;
#X connect 1 0 0 0;
#X connect 5 0 1 0;
#X connect 6 0 2 0;
#X connect 6 1 3 0;
#X connect 6 2 4 0;
#X connect 10 0 36 0;
#X connect 11 0 41 0;
#X connect 12 0 37 0;
#X connect 13 0 15 0;
#X connect 13 1 16 0;
#X connect 13 2 17 0;
#X connect 13 3 18 0;
#X connect 13 4 20 0;
#X connect 15 0 28 0;
#X connect 16 0 29 0;
#X connect 17 0 30 0;
#X connect 18 0 31 0;
#X connect 19 0 71 0;
#X connect 20 0 19 0;
#X connect 20 1 21 0;
#X connect 21 0 72 0;
#X connect 22 0 32 0;
#X connect 23 0 33 0;
#X connect 24 0 34 0;
#X connect 25 0 35 0;
#X connect 26 0 22 0;
#X connect 26 1 23 0;
#X connect 26 2 24 0;
#X connect 26 3 25 0;
#X connect 38 0 69 0;
#X connect 39 0 68 0;
#X connect 40 0 10 0;
#X connect 40 1 11 0;
#X connect 40 2 12 0;
#X connect 42 0 45 0;
#X connect 43 0 47 0;
#X connect 44 0 46 0;
#X connect 48 0 42 0;
#X connect 48 1 43 0;
#X connect 48 2 44 0;
#X connect 49 0 52 0;
#X connect 50 0 54 0;
#X connect 51 0 53 0;
#X connect 55 0 49 0;
#X connect 55 1 50 0;
#X connect 55 2 51 0;
#X connect 68 0 6 0;
#X connect 68 0 13 0;
#X connect 68 0 26 0;
#X connect 68 0 38 0;
#X connect 68 0 40 0;
#X connect 68 0 48 0;
#X connect 68 0 55 0;
#X coords 0 -1 1 1 700 500 1 100 100;
