#N canvas 1281 98 1278 1337 10;
#X obj 33 -148 udpreceive 9999;
#X msg 33 -175 port 9999;
#X obj 33 -199 loadbang;
#X obj 33 41 routeOSC /pad/1 /pad/2 /pad/3 /pad/4;
#X obj 236 163 vsl 22 128 0 1 0 0 \$0-pad_1 empty Right 0 -9 0 10 -4034
-1 -1 1232 1;
#X obj 154 163 vsl 22 128 0 1 0 0 \$0-pad_2 empty Back 0 -9 0 10 -4034
-1 -1 321 1;
#X obj 196 163 vsl 22 128 0 1 0 0 \$0-pad_3 empty Left 0 -9 0 10 -4034
-1 -1 977 1;
#X obj 115 163 vsl 22 128 0 1 0 0 \$0-pad_4 empty Front 0 -9 0 10 -4034
-1 -1 20 1;
#X obj 508 164 vsl 22 128 4000 0 0 0 empty empty Pos 0 -9 0 10 -257985
-1 -1 197 1;
#X obj 547 164 vsl 22 128 0 300 0 0 empty empty Force 0 -9 0 10 -257985
-1 -1 1228 1;
#X obj 310 164 vsl 22 128 0 1 0 0 \$0-valve_1 empty 1 0 -9 0 10 -258113
-1 -1 3 1;
#X obj 349 164 vsl 22 128 0 1 0 0 \$0-valve_2 empty 2 0 -9 0 10 -258113
-1 -1 3 1;
#X obj 388 164 vsl 22 128 0 1 0 0 \$0-valve_3 empty 3 0 -9 0 10 -258113
-1 -1 3 1;
#X obj 428 164 vsl 22 128 0 1 0 0 \$0-valve_4 empty 4 0 -9 0 10 -258113
-1 -1 0 1;
#X obj 267 41 routeOSC /valve/1 /valve/2 /valve/3 /valve/4;
#X text 353 136 VALVES;
#X obj 33 -125 unpackOSC;
#X obj 33 -14 routeOSC /bong/\$1;
#X text 537 131 RIBBON;
#X floatatom 508 299 5 0 0 0 - - -, f 5;
#X floatatom 547 299 5 0 0 0 - - -, f 5;
#X obj 916 41 routeOSC /orientation/roll /orientation/pitch /orientation/heading
, f 71;
#X obj 811 147 bng 15 250 50 0 empty empty Receiving 17 7 0 10 -262144
-1 -1;
#X floatatom 818 306 5 0 3 2 Sys - -, f 5;
#X floatatom 857 305 5 0 3 2 Gyro - -, f 5;
#X floatatom 899 306 5 0 3 2 Mag - -, f 5;
#X floatatom 938 306 5 0 3 2 Accel - -, f 5;
#X obj 1008 233 routeOSC /cal/gyro;
#X obj 1008 260 routeOSC /cal/mag;
#X obj 1007 288 routeOSC /cal/accel;
#X obj 1009 208 routeOSC /cal/sys;
#X obj 33 -85 list prepend;
#X obj 809 111 tgl 22 0 empty empty Active 25 10 0 15 -260097 -1 -1
1 1;
#X obj 33 -57 route 1;
#X obj 479 -49 counter;
#X obj 479 -80 bng 15 250 50 0 empty empty empty 17 7 0 10 -262144
-1 -1;
#X floatatom 893 146 5 0 0 1 Packets/s - -, f 5;
#X obj 557 -78 metro 1000;
#X obj 557 -113 tgl 15 0 empty empty empty 17 7 0 10 -262144 -1 -1
1 1;
#X obj 493 -4 i, f 7;
#X msg 507 -80 set 0;
#X msg 538 -28 0;
#X obj 538 -50 t b b b;
#X msg 478 -131 1;
#X obj 552 41 routeOSC /ribbon/position /ribbon/pressure /ribbon/octave
;
#X obj 588 164 vsl 22 128 -5 5 0 0 OCTAVE empty Octave 0 -9 0 10 -257985
-1 -1 0 1;
#X floatatom 588 299 5 0 0 0 - - -, f 5;
#X obj -194 445 r \$0-pad_1;
#X obj -120 445 r \$0-pad_2;
#X obj -51 446 r \$0-pad_3;
#X obj 19 447 r \$0-pad_4;
#X obj -194 488 max 0;
#X obj -120 488 max 0;
#X obj -51 488 max 0;
#X obj 19 487 max 0;
#X obj 651 164 vsl 22 128 -90 90 0 0 IMU_roll empty Roll 0 -9 0 10
-4160 -1 -1 6399 1;
#X obj 699 164 vsl 22 128 -180 180 0 0 IMU_pitch empty Pitch 0 -9 0
10 -4160 -1 -1 6440 1;
#X obj 745 164 vsl 22 128 -180 180 0 0 empty empty Heading 0 -9 0 10
-4160 -1 -1 7549 1;
#X floatatom 651 299 5 0 0 0 - - -, f 5;
#X floatatom 699 299 5 0 0 0 - - -, f 5;
#X floatatom 745 299 5 0 0 0 - - -, f 5;
#X text 831 266 Calibration status:;
#X text 167 133 PADS;
#X floatatom 115 298 5 0 0 0 - - -, f 5;
#X floatatom 196 298 5 0 0 0 - - -, f 5;
#X floatatom 154 298 5 0 0 0 - - -, f 5;
#X floatatom 236 298 5 0 0 0 - - -, f 5;
#X floatatom 310 299 5 0 0 0 - - -, f 5;
#X floatatom 388 299 5 0 0 0 - - -, f 5;
#X floatatom 349 299 5 0 0 0 - - -, f 5;
#X floatatom 428 299 5 0 0 0 - - -, f 5;
#X text 696 125 IMU;
#X text 119 375 Sends: PAD_front \, PAD_rear \, AM \, PITCH \, PITCH_SHIFT
\, IMU_roll \, IMU_pitch \, IMU_head, f 84;
#X obj -96 -124 s BONG_COMPLETE;
#X obj 651 677 s BONG_IMU_roll;
#X obj 699 644 s BONG_IMU_pitch;
#X obj 745 617 s BONG_IMU_head;
#X obj -159 814 s BONG_PAD_PRESSURE;
#X obj 259 588 s BONG_RIBBON_POS;
#X obj 386 587 s BONG_RIBBON_FORCE;
#X obj 510 587 s BONG_RIBBON_SWIPE;
#X obj 88 948 s BONG_PAD_OFFSET;
#X floatatom -262 69 5 0 0 0 - - -, f 5;
#X obj -262 40 routeOSC /intensity /note /note_pressure, f 47;
#X obj -169 66 select 0;
#X obj -124 93 + 55;
#X obj -124 124 s BONG_VALVES_NOTE;
#X obj 240 881 +;
#X obj 240 905 +;
#X obj 240 931 +;
#X obj 240 800 max 0;
#X obj 283 800 max 0;
#X obj 325 800 max 0;
#X obj 367 801 max 0;
#X obj 240 1016 s BONG_VALVE_PRESSURE;
#X obj 142 735 r \$0-valve_1;
#X obj 240 733 r \$0-valve_2;
#X obj 339 734 r \$0-valve_3;
#X obj 436 732 r \$0-valve_4;
#X floatatom 259 565 5 0 0 0 - - -, f 5;
#X floatatom 386 540 5 0 0 0 - - -, f 5;
#X obj 255 -197 inlet;
#X text -264 88 INTENSITY;
#X obj 780 -9 s BONG_PACKET;
#X obj -169 172 s BONG_VALVES_BINARY;
#X obj -159 657 +;
#X obj -159 681 +;
#X obj -159 707 +;
#X obj 855 523 s BONG_CAL_STATUS;
#X obj 855 451 +;
#X obj 855 474 +;
#X obj 855 497 +;
#X floatatom 1 667 5 0 0 0 - - -, f 5;
#X floatatom 190 667 5 0 0 0 - - -, f 5;
#X floatatom 43 667 5 0 0 0 - - -, f 5;
#X floatatom 230 667 5 0 0 0 - - -, f 5;
#X obj 240 954 / 4;
#X obj -169 124 / 15;
#X floatatom 19 774 5 0 0 0 - - -, f 5;
#X obj -159 730 / 4;
#X obj 106 855 min 2;
#X obj 106 878 / 2;
#X obj 386 517 / 600;
#X obj 386 562 min 1;
#X obj 259 489 / 4000;
#X obj 259 512 - 1;
#X obj 259 535 * -1;
#X obj 699 619 / 360;
#X obj 699 594 + 180;
#X obj 651 627 + 90;
#X obj 651 650 / 180;
#X obj 745 504 + 180;
#X obj 745 527 / 360;
#X obj 510 512 + 5;
#X obj 510 535 / 10;
#X connect 0 0 16 0;
#X connect 0 0 35 0;
#X connect 0 0 22 0;
#X connect 0 0 73 0;
#X connect 1 0 0 0;
#X connect 2 0 1 0;
#X connect 2 0 43 0;
#X connect 3 0 4 0;
#X connect 3 1 5 0;
#X connect 3 2 6 0;
#X connect 3 3 7 0;
#X connect 3 4 14 0;
#X connect 4 0 66 0;
#X connect 5 0 65 0;
#X connect 6 0 64 0;
#X connect 7 0 63 0;
#X connect 8 0 19 0;
#X connect 9 0 20 0;
#X connect 10 0 67 0;
#X connect 11 0 69 0;
#X connect 12 0 68 0;
#X connect 13 0 70 0;
#X connect 14 0 10 0;
#X connect 14 1 11 0;
#X connect 14 2 12 0;
#X connect 14 3 13 0;
#X connect 14 4 44 0;
#X connect 16 0 31 0;
#X connect 17 0 3 0;
#X connect 17 0 83 0;
#X connect 19 0 124 0;
#X connect 20 0 122 0;
#X connect 21 0 55 0;
#X connect 21 1 56 0;
#X connect 21 2 57 0;
#X connect 21 3 30 0;
#X connect 23 0 109 0;
#X connect 24 0 109 1;
#X connect 25 0 110 1;
#X connect 26 0 111 1;
#X connect 27 0 24 0;
#X connect 27 1 28 0;
#X connect 28 0 25 0;
#X connect 28 1 29 0;
#X connect 29 0 26 0;
#X connect 30 0 23 0;
#X connect 30 1 27 0;
#X connect 31 0 33 0;
#X connect 32 0 31 1;
#X connect 33 0 17 0;
#X connect 34 0 39 1;
#X connect 35 0 34 0;
#X connect 35 0 103 0;
#X connect 37 0 42 0;
#X connect 38 0 37 0;
#X connect 39 0 36 0;
#X connect 40 0 34 0;
#X connect 41 0 39 1;
#X connect 42 0 41 0;
#X connect 42 1 40 0;
#X connect 42 2 39 0;
#X connect 43 0 38 0;
#X connect 44 0 8 0;
#X connect 44 1 9 0;
#X connect 44 2 45 0;
#X connect 44 3 21 0;
#X connect 45 0 46 0;
#X connect 46 0 133 0;
#X connect 47 0 51 0;
#X connect 48 0 52 0;
#X connect 49 0 53 0;
#X connect 50 0 54 0;
#X connect 51 0 105 0;
#X connect 51 0 112 0;
#X connect 52 0 105 1;
#X connect 52 0 114 0;
#X connect 53 0 106 1;
#X connect 53 0 113 0;
#X connect 54 0 107 1;
#X connect 54 0 115 0;
#X connect 55 0 58 0;
#X connect 56 0 59 0;
#X connect 57 0 60 0;
#X connect 58 0 129 0;
#X connect 59 0 128 0;
#X connect 60 0 131 0;
#X connect 83 0 82 0;
#X connect 83 1 84 0;
#X connect 83 1 117 0;
#X connect 84 1 85 0;
#X connect 85 0 86 0;
#X connect 87 0 88 0;
#X connect 88 0 89 0;
#X connect 89 0 116 0;
#X connect 90 0 87 0;
#X connect 91 0 87 1;
#X connect 92 0 88 1;
#X connect 93 0 89 1;
#X connect 95 0 90 0;
#X connect 96 0 91 0;
#X connect 97 0 92 0;
#X connect 98 0 93 0;
#X connect 99 0 78 0;
#X connect 100 0 123 0;
#X connect 101 0 16 0;
#X connect 105 0 106 0;
#X connect 106 0 107 0;
#X connect 107 0 118 0;
#X connect 107 0 119 0;
#X connect 109 0 110 0;
#X connect 110 0 111 0;
#X connect 111 0 108 0;
#X connect 116 0 94 0;
#X connect 117 0 104 0;
#X connect 118 0 120 0;
#X connect 119 0 77 0;
#X connect 120 0 121 0;
#X connect 121 0 81 0;
#X connect 122 0 100 0;
#X connect 123 0 79 0;
#X connect 124 0 125 0;
#X connect 125 0 126 0;
#X connect 126 0 99 0;
#X connect 127 0 75 0;
#X connect 128 0 127 0;
#X connect 129 0 130 0;
#X connect 130 0 74 0;
#X connect 131 0 132 0;
#X connect 132 0 76 0;
#X connect 133 0 134 0;
#X connect 134 0 80 0;
#X coords 0 -1 1 1 900 300 1 100 100;
