#N canvas 1921 225 1918 974 10;
#X obj 94 -199 udpreceive 9999;
#X msg 94 -226 port 9999;
#X floatatom 36 92 5 0 0 0 - - -, f 5;
#X floatatom -121 100 5 0 0 0 - - -, f 5;
#X floatatom 37 158 5 0 0 0 - - -, f 5;
#X obj 94 -250 loadbang;
#X text 29 77 INTENSITY;
#X text 35 111 NOTE;
#X text 38 144 MOD;
#X floatatom 143 498 5 0 0 0 - - -, f 5;
#X floatatom 143 530 5 0 0 0 - - -, f 5;
#X floatatom 143 562 5 0 0 0 - - -, f 5;
#X obj 67 11 routeOSC /pad/1 /pad/2 /pad/3 /pad/4;
#X text 114 157 PAD;
#X obj 116 191 vsl 15 128 0 1024 0 0 empty empty empty 0 -9 0 10 -4034
-1 -1 0 1;
#X obj 152 191 vsl 15 128 0 1024 0 0 empty empty empty 0 -9 0 10 -4034
-1 -1 347 1;
#X obj 188 191 vsl 15 128 0 1024 0 0 empty empty empty 0 -9 0 10 -4034
-1 -1 769 1;
#X obj 223 191 vsl 15 128 0 1024 0 0 empty empty empty 0 -9 0 10 -4034
-1 -1 0 1;
#X obj 554 197 vsl 15 128 4000 0 0 0 empty empty empty 0 -9 0 10 -257985
-1 -1 10481 1;
#X obj 593 80 routeOSC /ribbon/position /ribbon/pressure;
#X obj 595 198 vsl 15 128 0 300 0 0 empty empty empty 0 -9 0 10 -257985
-1 -1 212 1;
#X obj 351 192 vsl 15 128 0 4000 0 0 empty empty empty 0 -9 0 10 -258113
-1 -1 0 1;
#X obj 387 192 vsl 15 128 0 4000 0 0 empty empty empty 0 -9 0 10 -258113
-1 -1 0 1;
#X obj 423 192 vsl 15 128 0 4000 0 0 empty empty empty 0 -9 0 10 -258113
-1 -1 0 1;
#X obj 459 192 vsl 15 128 0 4000 0 0 empty empty empty 0 -9 0 10 -258113
-1 -1 0 1;
#X obj 306 11 routeOSC /valve/1 /valve/2 /valve/3 /valve/4;
#X text 372 157 VALVES;
#X floatatom 116 327 5 0 0 0 - - -, f 5;
#X floatatom 152 327 5 0 0 0 - - -, f 5;
#X floatatom 188 327 5 0 0 0 - - -, f 5;
#X floatatom 223 327 5 0 0 0 - - -, f 5;
#X floatatom 351 361 5 0 0 0 - - -, f 5;
#X floatatom 387 361 5 0 0 0 - - -, f 5;
#X floatatom 423 361 5 0 0 0 - - -, f 5;
#X floatatom 459 361 5 0 0 0 - - -, f 5;
#X obj 184 498 hsl 128 15 -1 1 0 0 empty empty empty -2 -8 0 10 -4032
-1 -1 8088 1;
#X obj 184 558 hsl 128 15 -1 1 0 0 empty empty empty -2 -8 0 10 -4032
-1 -1 5302 1;
#X obj 94 -176 unpackOSC;
#X obj -103 378 routeOSC /mag/x /mag/y /mag/z;
#X obj 184 528 hsl 128 15 -1 1 0 0 empty empty empty -2 -8 0 10 -4032
-1 -1 11419 1;
#X floatatom 363 498 5 0 0 0 - - -, f 5;
#X floatatom 363 530 5 0 0 0 - - -, f 5;
#X floatatom 363 562 5 0 0 0 - - -, f 5;
#X obj 401 498 hsl 128 15 -10 10 0 0 empty empty empty -2 -8 0 10 -4032
-1 -1 631 1;
#X obj 401 558 hsl 128 15 -10 10 0 0 empty empty empty -2 -8 0 10 -4032
-1 -1 6609 1;
#X obj 401 528 hsl 128 15 -10 10 0 0 empty empty empty -2 -8 0 10 -4032
-1 -1 3570 1;
#X obj 319 411 routeOSC /accel/x /accel/y /accel/z;
#X floatatom 586 498 5 0 0 0 - - -, f 5;
#X floatatom 586 530 5 0 0 0 - - -, f 5;
#X floatatom 586 562 5 0 0 0 - - -, f 5;
#X obj 626 498 hsl 128 15 -100 100 0 0 empty empty empty -2 -8 0 10
-4032 -1 -1 6349 1;
#X obj 626 558 hsl 128 15 -100 100 0 0 empty empty empty -2 -8 0 10
-4032 -1 -1 6064 1;
#X obj 626 528 hsl 128 15 -100 100 0 0 empty empty empty -2 -8 0 10
-4032 -1 -1 6442 1;
#X obj 579 436 routeOSC /gyro/x /gyro/y /gyro/z;
#X text 196 472 MAGNETIC;
#X text 427 472 ACCEL;
#X text 645 474 GYRO;
#X text 124 497 X;
#X text 122 529 Y;
#X text 123 563 Z;
#X text 345 494 X;
#X text 343 526 Y;
#X text 344 560 Z;
#X text 569 497 X;
#X text 567 529 Y;
#X text 568 563 Z;
#X obj 95 -134 routeOSC /bong/\$1;
#X text 562 142 RIBBON;
#X floatatom 554 333 5 0 0 0 - - -, f 5;
#X floatatom 595 334 5 0 0 0 - - -, f 5;
#X text 549 170 pos;
#X text 586 171 force;
#X floatatom 669 251 5 0 0 0 - - -, f 5;
#X obj 822 201 routeOSC /orientation/roll /orientation/pitch /orientation/heading
, f 71;
#X floatatom 719 252 5 0 0 0 - - -, f 5;
#X floatatom 764 252 5 0 0 0 - - -, f 5;
#X obj 669 275 vsl 15 128 -180 180 0 0 empty empty empty 0 -9 0 10
-4160 -1 -1 3363 1;
#X obj 719 274 vsl 15 128 -180 180 0 0 empty empty empty 0 -9 0 10
-4160 -1 -1 8607 1;
#X obj 764 276 vsl 15 128 -180 180 0 0 empty empty empty 0 -9 0 10
-4160 -1 -1 12402 1;
#X text 711 215 AHRS;
#X obj -75 650 outlet;
#X obj -73 462 +;
#X obj -73 485 +;
#X obj -73 513 +;
#X floatatom -75 539 5 0 0 0 - - -, f 5;
#X floatatom -75 584 5 0 0 0 - - -, f 5;
#X obj -75 606 / 2000;
#X obj -296 4 routeOSC /intensity /note /note_pressure, f 47;
#X obj 32 227 outlet;
#X obj 282 785 outlet;
#X obj -75 561 - 0;
#X obj 302 650 +;
#X obj 302 673 +;
#X obj 302 696 +;
#X obj -113 147 + 10;
#X floatatom -96 173 5 0 0 0 - - -, f 5;
#X connect 0 0 37 0;
#X connect 1 0 0 0;
#X connect 3 0 94 0;
#X connect 5 0 1 0;
#X connect 9 0 35 0;
#X connect 10 0 39 0;
#X connect 11 0 36 0;
#X connect 12 0 14 0;
#X connect 12 1 15 0;
#X connect 12 2 16 0;
#X connect 12 3 17 0;
#X connect 12 4 19 0;
#X connect 14 0 27 0;
#X connect 15 0 28 0;
#X connect 16 0 29 0;
#X connect 17 0 30 0;
#X connect 18 0 68 0;
#X connect 19 0 18 0;
#X connect 19 1 20 0;
#X connect 20 0 69 0;
#X connect 21 0 31 0;
#X connect 22 0 32 0;
#X connect 23 0 33 0;
#X connect 24 0 34 0;
#X connect 25 0 21 0;
#X connect 25 1 22 0;
#X connect 25 2 23 0;
#X connect 25 3 24 0;
#X connect 27 0 81 0;
#X connect 28 0 81 1;
#X connect 29 0 82 1;
#X connect 30 0 83 1;
#X connect 31 0 91 0;
#X connect 32 0 91 1;
#X connect 33 0 92 1;
#X connect 34 0 93 1;
#X connect 37 0 66 0;
#X connect 38 0 9 0;
#X connect 38 1 10 0;
#X connect 38 2 11 0;
#X connect 40 0 43 0;
#X connect 41 0 45 0;
#X connect 42 0 44 0;
#X connect 46 0 40 0;
#X connect 46 1 41 0;
#X connect 46 2 42 0;
#X connect 47 0 50 0;
#X connect 48 0 52 0;
#X connect 49 0 51 0;
#X connect 53 0 47 0;
#X connect 53 1 48 0;
#X connect 53 2 49 0;
#X connect 66 0 12 0;
#X connect 66 0 25 0;
#X connect 66 0 38 0;
#X connect 66 0 46 0;
#X connect 66 0 53 0;
#X connect 66 0 73 0;
#X connect 66 0 87 0;
#X connect 69 0 89 0;
#X connect 72 0 76 0;
#X connect 73 0 72 0;
#X connect 73 1 74 0;
#X connect 73 2 75 0;
#X connect 74 0 77 0;
#X connect 75 0 78 0;
#X connect 81 0 82 0;
#X connect 82 0 83 0;
#X connect 83 0 84 0;
#X connect 84 0 90 0;
#X connect 85 0 86 0;
#X connect 86 0 80 0;
#X connect 87 0 2 0;
#X connect 87 1 3 0;
#X connect 87 2 4 0;
#X connect 90 0 85 0;
#X connect 91 0 92 0;
#X connect 92 0 93 0;
#X connect 94 0 88 0;
#X connect 94 0 95 0;
#X coords 0 -1 1 1 700 500 1 100 100;
