#N canvas 0 106 1920 974 10;
#X obj 94 -199 udpreceive 9999;
#X msg 94 -226 port 9999;
#X floatatom 113 141 5 0 0 0 - - -, f 5;
#X floatatom 113 175 5 0 0 0 - - -, f 5;
#X floatatom 114 207 5 0 0 0 - - -, f 5;
#X obj -154 271 line;
#X msg -154 247 \$1 50;
#X obj 94 -250 loadbang;
#X obj -154 223 routeOSC /roll_x /roll_y;
#X obj -84 271 line;
#X msg -84 247 \$1 50;
#X obj -296 4 routeOSC /velocity /note_pitch /note_pressure, f 47
;
#X text 106 126 INTENSITY;
#X text 112 160 NOTE;
#X text 115 193 MOD;
#X floatatom 1016 108 5 0 0 0 - - -, f 5;
#X obj 1016 73 routeOSC /mag_x /mag_y /mag_z;
#X floatatom 1073 112 5 0 0 0 - - -, f 5;
#X floatatom 1131 113 5 0 0 0 - - -, f 5;
#X obj 67 11 routeOSC /pad/1 /pad/2 /pad/3 /pad/4;
#X text 190 107 PAD;
#X obj 192 141 vsl 15 128 0 1024 0 0 empty empty empty 0 -9 0 10 -4034
-1 -1 6933 1;
#X obj 224 141 vsl 15 128 0 1024 0 0 empty empty empty 0 -9 0 10 -4034
-1 -1 5457 1;
#X obj 256 141 vsl 15 128 0 1024 0 0 empty empty empty 0 -9 0 10 -4034
-1 -1 7032 1;
#X obj 288 141 vsl 15 128 0 1024 0 0 empty empty empty 0 -9 0 10 -4034
-1 -1 6685 1;
#X obj 349 142 vsl 15 128 4000 0 0 0 empty empty empty 0 -9 0 10 -257985
-1 -1 6277 1;
#X obj 310 61 routeOSC /ribbon/position /ribbon/pressure;
#X obj 378 140 vsl 15 128 0 300 0 0 empty empty empty 0 -9 0 10 -257985
-1 -1 127 1;
#X obj 431 142 vsl 15 128 0 4000 0 0 empty empty empty 0 -9 0 10 -258113
-1 -1 8515 1;
#X obj 463 142 vsl 15 128 0 4000 0 0 empty empty empty 0 -9 0 10 -258113
-1 -1 10516 1;
#X obj 495 142 vsl 15 128 0 4000 0 0 empty empty empty 0 -9 0 10 -258113
-1 -1 8960 1;
#X obj 527 142 vsl 15 128 0 4000 0 0 empty empty empty 0 -9 0 10 -258113
-1 -1 6794 1;
#X obj 306 11 routeOSC /valve/1 /valve/2 /valve/3 /valve/4;
#X text 452 107 VALVES;
#X floatatom 192 277 5 0 0 0 - - -, f 5;
#X floatatom 224 277 5 0 0 0 - - -, f 5;
#X floatatom 256 277 5 0 0 0 - - -, f 5;
#X floatatom 288 277 5 0 0 0 - - -, f 5;
#X floatatom 431 278 5 0 0 0 - - -, f 5;
#X floatatom 463 278 5 0 0 0 - - -, f 5;
#X floatatom 495 278 5 0 0 0 - - -, f 5;
#X floatatom 527 278 5 0 0 0 - - -, f 5;
#X obj 122 361 hsl 128 15 -180 180 0 0 empty empty empty -2 -8 0 10
-4032 -1 -1 6068 1;
#X obj 123 393 hsl 128 15 -180 180 0 0 empty empty empty -2 -8 0 10
-4032 -1 -1 6133 1;
#X obj 729 189 routeOSC /id;
#X obj 94 -176 unpackOSC;
#X obj 95 -134 routeOSC /bong/102;
#X connect 0 0 45 0;
#X connect 1 0 0 0;
#X connect 5 0 43 0;
#X connect 6 0 5 0;
#X connect 7 0 1 0;
#X connect 8 0 6 0;
#X connect 8 1 10 0;
#X connect 9 0 42 0;
#X connect 10 0 9 0;
#X connect 11 0 2 0;
#X connect 11 1 3 0;
#X connect 11 2 4 0;
#X connect 16 0 15 0;
#X connect 16 1 17 0;
#X connect 16 2 18 0;
#X connect 19 0 21 0;
#X connect 19 1 22 0;
#X connect 19 2 23 0;
#X connect 19 3 24 0;
#X connect 19 4 26 0;
#X connect 21 0 34 0;
#X connect 22 0 35 0;
#X connect 23 0 36 0;
#X connect 24 0 37 0;
#X connect 26 0 25 0;
#X connect 26 1 27 0;
#X connect 28 0 38 0;
#X connect 29 0 39 0;
#X connect 30 0 40 0;
#X connect 31 0 41 0;
#X connect 32 0 28 0;
#X connect 32 1 29 0;
#X connect 32 2 30 0;
#X connect 32 3 31 0;
#X connect 45 0 46 0;
#X connect 46 0 8 0;
#X connect 46 0 11 0;
#X connect 46 0 16 0;
#X connect 46 0 19 0;
#X connect 46 0 32 0;
#X connect 46 0 44 0;
#X coords 0 -1 1 1 500 400 1 100 100;
