#N canvas 1282 94 1278 1346 10;
#X obj 33 -148 udpreceive 9999;
#X msg 33 -175 port 9999;
#X obj 33 -199 loadbang;
#X obj 33 41 routeOSC /pad/1 /pad/2 /pad/3 /pad/4;
#X obj 236 163 vsl 22 128 0 1 0 0 \$0-pad_1 empty Right 0 -9 0 10 -4034
-1 -1 441 1;
#X obj 154 163 vsl 22 128 0 1 0 0 \$0-pad_2 empty Back 0 -9 0 10 -4034
-1 -1 53 1;
#X obj 196 163 vsl 22 128 0 1 0 0 \$0-pad_3 empty Left 0 -9 0 10 -4034
-1 -1 568 1;
#X obj 115 163 vsl 22 128 0 1 0 0 \$0-pad_4 empty Front 0 -9 0 10 -4034
-1 -1 0 1;
#X obj 508 164 vsl 22 128 4000 0 0 0 empty empty Pos 0 -9 0 10 -257985
-1 -1 9360 1;
#X obj 547 164 vsl 22 128 0 300 0 0 empty empty Force 0 -9 0 10 -257985
-1 -1 42 1;
#X obj 310 164 vsl 22 128 0 1 0 0 \$0-valve_1 empty 1 0 -9 0 10 -258113
-1 -1 0 1;
#X obj 349 164 vsl 22 128 0 1 0 0 \$0-valve_2 empty 2 0 -9 0 10 -258113
-1 -1 1721 1;
#X obj 388 164 vsl 22 128 0 1 0 0 \$0-valve_3 empty 3 0 -9 0 10 -258113
-1 -1 0 1;
#X obj 428 164 vsl 22 128 0 1 0 0 \$0-valve_4 empty 4 0 -9 0 10 -258113
-1 -1 216 1;
#X obj 267 41 routeOSC /valve/1 /valve/2 /valve/3 /valve/4;
#X text 353 136 VALVES;
#X obj 33 -125 unpackOSC;
#X obj 33 -14 routeOSC /bong/\$1;
#X text 537 131 RIBBON;
#X floatatom 508 299 5 0 0 0 - - -;
#X floatatom 547 299 5 0 0 0 - - -;
#X obj 916 41 routeOSC /orientation/roll /orientation/pitch /orientation/heading
, f 71;
#X obj 811 147 bng 15 250 50 0 empty empty Receiving 17 7 0 10 -262144
-1 -1;
#X floatatom 818 306 5 0 3 2 Sys - -;
#X floatatom 857 305 5 0 3 2 Gyro - -;
#X floatatom 899 306 5 0 3 2 Mag - -;
#X floatatom 938 306 5 0 3 2 Accel - -;
#X obj 1008 233 routeOSC /cal/gyro;
#X obj 1008 260 routeOSC /cal/mag;
#X obj 1007 288 routeOSC /cal/accel;
#X obj 1009 208 routeOSC /cal/sys;
#X obj 33 -85 list prepend;
#X obj 809 111 tgl 22 0 empty empty Active 25 10 0 15 -260097 -1 -1
1 1;
#X obj 33 -57 route 1;
#X obj 479 -49 counter;
#X obj 479 -80 bng 15 250 50 0 empty empty empty 17 7 0 10 -262144
-1 -1;
#X floatatom 893 146 5 0 0 1 Packets/s - -;
#X obj 557 -78 metro 1000;
#X obj 557 -113 tgl 15 0 empty empty empty 17 7 0 10 -262144 -1 -1
1 1;
#X obj 493 -4 i, f 7;
#X msg 507 -80 set 0;
#X msg 538 -28 0;
#X obj 538 -50 t b b b;
#X msg 478 -131 1;
#X obj 552 41 routeOSC /ribbon/position /ribbon/pressure /ribbon/octave
;
#X obj 588 164 vsl 22 128 -5 5 0 0 OCTAVE empty Octave 0 -9 0 10 -257985
-1 -1 6350 1;
#X floatatom 588 299 5 0 0 0 - - -;
#X obj -194 105 r \$0-pad_1;
#X obj -120 105 r \$0-pad_2;
#X obj -51 106 r \$0-pad_3;
#X obj 19 107 r \$0-pad_4;
#X floatatom -120 198 5 0 0 0 - - -;
#X floatatom -51 198 5 0 0 0 - - -;
#X floatatom 19 194 5 0 0 0 - - -;
#X obj -194 215 +;
#X obj -66 381 +;
#X obj -66 410 +;
#X floatatom -66 431 5 0 0 0 - - -;
#X floatatom -66 476 5 0 0 0 - - -;
#X obj -66 453 - 0;
#X obj -66 498 / 3;
#X obj -66 521 pow 2;
#X obj -194 148 max 0;
#X obj -120 148 max 0;
#X obj -51 148 max 0;
#X obj 19 147 max 0;
#X obj 19 222 line 100;
#X obj -120 223 line 100;
#X obj 19 246 * 0.99;
#X obj -120 248 * 0.99;
#X obj 651 164 vsl 22 128 -90 90 0 0 IMU_roll empty Roll 0 -9 0 10
-4160 -1 -1 5838 1;
#X obj 699 164 vsl 22 128 -180 180 0 0 IMU_pitch empty Pitch 0 -9 0
10 -4160 -1 -1 6284 1;
#X obj 745 164 vsl 22 128 -180 180 0 0 empty empty Heading 0 -9 0 10
-4160 -1 -1 6154 1;
#X floatatom 651 299 5 0 0 0 - - -;
#X floatatom 699 299 5 0 0 0 - - -;
#X floatatom 745 299 5 0 0 0 - - -;
#X text 831 266 Calibration status:;
#X text 167 133 PADS;
#X floatatom 115 298 5 0 0 0 - - -;
#X floatatom 196 298 5 0 0 0 - - -;
#X floatatom 154 298 5 0 0 0 - - -;
#X floatatom 236 298 5 0 0 0 - - -;
#X floatatom 310 299 5 0 0 0 - - -;
#X floatatom 388 299 5 0 0 0 - - -;
#X floatatom 349 299 5 0 0 0 - - -;
#X floatatom 428 299 5 0 0 0 - - -;
#X text 696 125 IMU;
#X text 119 375 Sends: PAD_front \, PAD_rear \, AM \, PITCH \, PITCH_SHIFT
\, IMU_roll \, IMU_pitch \, IMU_head, f 84;
#X obj -96 -124 s BONG_COMPLETE;
#X obj 678 521 s BONG_IMU_roll;
#X obj 805 427 s BONG_IMU_pitch;
#X obj 944 431 s BONG_IMU_head;
#X obj -66 584 s BONG_PAD_PRESSURE;
#X obj 334 492 s BONG_RIBBON_POS;
#X obj 461 499 s BONG_RIBBON_FORCE;
#X obj 535 452 s BONG_RIBBON_SWIPE;
#X obj -155 882 s BONG_PAD_OFFSET;
#X floatatom -546 120 5 0 0 0 - - -;
#X text -553 105 INTENSITY;
#X obj -454 -24 routeOSC /intensity /note /note_pressure, f 47;
#X obj -371 16 select 0;
#X obj -373 64 + 55;
#X obj -426 125 s BONG_VALVES_NOTE;
#X obj 678 420 / 180;
#X floatatom 678 466 5 0 0 0 - - -;
#X obj 678 443 + 0.5;
#X floatatom 164 785 5 0 0 0 - - -;
#X floatatom 240 802 5 0 0 0 - - -;
#X floatatom 325 850 5 0 0 0 - - -;
#X floatatom 405 858 5 0 0 0 - - -;
#X obj 225 838 +;
#X obj 225 892 +;
#X obj 225 933 +;
#X floatatom 225 1265 5 0 0 0 - - -;
#X obj 164 755 max 0;
#X obj 239 755 max 0;
#X obj 323 789 max 0;
#X obj 403 797 max 0;
#X obj 106 824 > 0.1;
#X obj 289 1035 +;
#X obj 312 979 > 0.1;
#X obj 347 1091 +;
#X obj 370 1035 > 0.1;
#X obj 347 1119 +;
#X obj 429 1043 > 0.1;
#X obj 225 1185 /;
#X floatatom 347 1142 5 0 0 0 - - -;
#X obj 224 1317 route 1;
#X obj 225 1287 list prepend 1;
#X obj 226 1350 s BONG_VALVE_PRESSURE;
#X obj 225 1208 - 0;
#X obj 106 715 r \$0-valve_1;
#X obj 286 612 r \$0-valve_2;
#X obj 375 663 r \$0-valve_3;
#X obj 506 723 r \$0-valve_4;
#X obj 225 1231 * 1;
#X floatatom 334 469 5 0 0 0 - - -;
#X obj 334 446 / 4000;
#X obj 461 441 / 300;
#X floatatom 461 464 5 0 0 0 - - -;
#X connect 0 0 16 0;
#X connect 0 0 35 0;
#X connect 0 0 22 0;
#X connect 0 0 88 0;
#X connect 1 0 0 0;
#X connect 2 0 1 0;
#X connect 2 0 43 0;
#X connect 3 0 4 0;
#X connect 3 1 5 0;
#X connect 3 2 6 0;
#X connect 3 3 7 0;
#X connect 3 4 14 0;
#X connect 4 0 81 0;
#X connect 5 0 80 0;
#X connect 6 0 79 0;
#X connect 7 0 78 0;
#X connect 8 0 19 0;
#X connect 9 0 20 0;
#X connect 10 0 82 0;
#X connect 11 0 84 0;
#X connect 12 0 83 0;
#X connect 13 0 85 0;
#X connect 14 0 10 0;
#X connect 14 1 11 0;
#X connect 14 2 12 0;
#X connect 14 3 13 0;
#X connect 14 4 44 0;
#X connect 16 0 31 0;
#X connect 17 0 3 0;
#X connect 17 0 99 0;
#X connect 19 0 137 0;
#X connect 20 0 138 0;
#X connect 21 0 70 0;
#X connect 21 1 71 0;
#X connect 21 2 72 0;
#X connect 21 3 30 0;
#X connect 27 0 24 0;
#X connect 27 1 28 0;
#X connect 28 0 25 0;
#X connect 28 1 29 0;
#X connect 29 0 26 0;
#X connect 30 0 23 0;
#X connect 30 1 27 0;
#X connect 31 0 33 0;
#X connect 32 0 31 1;
#X connect 33 0 17 0;
#X connect 34 0 39 1;
#X connect 35 0 34 0;
#X connect 37 0 42 0;
#X connect 38 0 37 0;
#X connect 39 0 36 0;
#X connect 40 0 34 0;
#X connect 41 0 39 1;
#X connect 42 0 41 0;
#X connect 42 1 40 0;
#X connect 42 2 39 0;
#X connect 43 0 38 0;
#X connect 44 0 8 0;
#X connect 44 1 9 0;
#X connect 44 2 45 0;
#X connect 44 3 21 0;
#X connect 45 0 46 0;
#X connect 46 0 95 0;
#X connect 47 0 62 0;
#X connect 48 0 63 0;
#X connect 49 0 64 0;
#X connect 50 0 65 0;
#X connect 51 0 54 1;
#X connect 51 0 67 0;
#X connect 52 0 55 1;
#X connect 53 0 56 1;
#X connect 53 0 66 0;
#X connect 54 0 55 0;
#X connect 55 0 56 0;
#X connect 56 0 57 0;
#X connect 57 0 59 0;
#X connect 58 0 60 0;
#X connect 59 0 58 0;
#X connect 60 0 61 0;
#X connect 61 0 92 0;
#X connect 62 0 54 0;
#X connect 63 0 51 0;
#X connect 64 0 52 0;
#X connect 65 0 53 0;
#X connect 66 0 68 0;
#X connect 67 0 69 0;
#X connect 70 0 73 0;
#X connect 71 0 74 0;
#X connect 72 0 75 0;
#X connect 73 0 103 0;
#X connect 74 0 90 0;
#X connect 75 0 91 0;
#X connect 99 0 97 0;
#X connect 99 1 100 0;
#X connect 100 1 101 0;
#X connect 101 0 102 0;
#X connect 103 0 105 0;
#X connect 104 0 89 0;
#X connect 105 0 104 0;
#X connect 106 0 110 0;
#X connect 107 0 110 1;
#X connect 108 0 111 1;
#X connect 109 0 112 1;
#X connect 110 0 111 0;
#X connect 111 0 112 0;
#X connect 112 0 125 0;
#X connect 113 0 128 0;
#X connect 114 0 106 0;
#X connect 115 0 107 0;
#X connect 116 0 108 0;
#X connect 117 0 109 0;
#X connect 118 0 119 0;
#X connect 119 0 121 0;
#X connect 120 0 119 1;
#X connect 121 0 123 0;
#X connect 122 0 121 1;
#X connect 123 0 126 0;
#X connect 124 0 123 1;
#X connect 125 0 130 0;
#X connect 126 0 125 1;
#X connect 127 0 129 0;
#X connect 128 0 127 0;
#X connect 130 0 135 0;
#X connect 131 0 114 0;
#X connect 131 0 118 0;
#X connect 132 0 120 0;
#X connect 132 0 115 0;
#X connect 133 0 116 0;
#X connect 133 0 122 0;
#X connect 134 0 117 0;
#X connect 134 0 124 0;
#X connect 135 0 113 0;
#X connect 136 0 93 0;
#X connect 137 0 136 0;
#X connect 138 0 139 0;
#X connect 139 0 94 0;
#X coords 0 -1 1 1 900 300 1 100 100;
