#N canvas 0 60 1366 662 10;
#X obj 108 -294 udpreceive 9999;
#X msg 108 -321 port 9999;
#X floatatom 36 92 5 0 0 0 - - -;
#X floatatom -121 100 5 0 0 0 - - -;
#X floatatom 37 158 5 0 0 0 - - -;
#X obj 108 -345 loadbang;
#X text 29 77 INTENSITY;
#X text 35 111 NOTE;
#X text 38 144 MOD;
#X obj 67 11 routeOSC /pad/1 /pad/2 /pad/3 /pad/4;
#X text 167 161 PAD;
#X obj 116 191 vsl 22 128 0 1 0 0 empty empty empty 0 -9 0 10 -4034
-1 -1 0 1;
#X obj 152 191 vsl 22 128 0 1 0 0 empty empty empty 0 -9 0 10 -4034
-1 -1 0 1;
#X obj 188 191 vsl 22 128 0 1 0 0 empty empty empty 0 -9 0 10 -4034
-1 -1 0 1;
#X obj 223 191 vsl 22 128 0 1 0 0 empty empty empty 0 -9 0 10 -4034
-1 -1 0 1;
#X obj 508 193 vsl 22 128 4000 0 0 0 empty empty empty 0 -9 0 10 -257985
-1 -1 10757 1;
#X obj 545 193 vsl 22 128 0 300 0 0 empty empty empty 0 -9 0 10 -257985
-1 -1 254 1;
#X obj 310 192 vsl 22 128 0 1 0 0 empty empty empty 0 -9 0 10 -258113
-1 -1 0 1;
#X obj 346 192 vsl 22 128 0 1 0 0 empty empty empty 0 -9 0 10 -258113
-1 -1 0 1;
#X obj 382 192 vsl 22 128 0 1 0 0 empty empty empty 0 -9 0 10 -258113
-1 -1 7 1;
#X obj 418 192 vsl 22 128 0 1 0 0 empty empty empty 0 -9 0 10 -258113
-1 -1 4 1;
#X obj 306 11 routeOSC /valve/1 /valve/2 /valve/3 /valve/4;
#X text 353 164 VALVES;
#X floatatom 114 375 5 0 0 0 - - -;
#X floatatom 150 375 5 0 0 0 - - -;
#X floatatom 186 375 5 0 0 0 - - -;
#X floatatom 221 375 5 0 0 0 - - -;
#X floatatom 309 390 5 0 0 0 - - -;
#X floatatom 348 389 5 0 0 0 - - -;
#X floatatom 384 389 5 0 0 0 - - -;
#X floatatom 420 389 5 0 0 0 - - -;
#X obj 108 -271 unpackOSC;
#X obj 96 -120 routeOSC /bong/\$1;
#X text 518 168 RIBBON;
#X floatatom 508 329 5 0 0 0 - - -;
#X floatatom 545 329 5 0 0 0 - - -;
#X text 509 346 pos;
#X text 543 349 force;
#X floatatom 655 208 5 0 0 0 - - -;
#X obj 824 148 routeOSC /orientation/roll /orientation/pitch /orientation/heading
, f 71;
#X floatatom 705 209 5 0 0 0 - - -;
#X floatatom 750 209 5 0 0 0 - - -;
#X obj 655 232 vsl 22 128 -180 180 0 0 empty empty empty 0 -9 0 10
-4160 -1 -1 6196 1;
#X obj 705 231 vsl 22 128 -180 180 0 0 empty empty empty 0 -9 0 10
-4160 -1 -1 6350 1;
#X obj 750 233 vsl 22 128 -180 180 0 0 empty empty empty 0 -9 0 10
-4160 -1 -1 0 1;
#X text 697 172 AHRS;
#X obj -73 462 +;
#X obj -73 485 +;
#X obj -73 513 +;
#X floatatom -75 539 5 0 0 0 - - -;
#X floatatom -75 584 5 0 0 0 - - -;
#X obj -296 4 routeOSC /intensity /note /note_pressure, f 47;
#X obj 27 227 outlet;
#X obj 443 820 outlet;
#X obj -75 561 - 0;
#X obj 318 471 +;
#X obj 357 473 +;
#X obj 403 471 +;
#X obj 249 117 bng 15 250 50 0 empty empty Receiving 17 7 0 10 -262144
-1 -1;
#X text 653 184 roll;
#X text 702 186 pitch;
#X text 748 186 head;
#X obj 997 443 s IMU_pitch;
#X obj 999 400 s IMU_head;
#X obj 1000 486 s IMU_roll;
#X obj -75 606 / 3;
#X floatatom 641 129 5 0 0 0 - - -;
#X floatatom 680 128 5 0 0 0 - - -;
#X floatatom 722 129 5 0 0 0 - - -;
#X floatatom 761 129 5 0 0 0 - - -;
#X text 680 99 Calilbration;
#X text 641 148 sys;
#X obj 845 -19 routeOSC /cal/gyro;
#X obj 883 24 routeOSC /cal/mag;
#X obj 926 77 routeOSC /cal/accel;
#X text 680 147 gyro;
#X text 722 148 mag;
#X text 761 148 accel;
#X obj 748 -51 routeOSC /cal/sys;
#X text 659 1071 GYRO;
#X text 116 985 X;
#X text 114 1017 Y;
#X text 115 1051 Z;
#X floatatom 135 986 5 0 0 0 - - -;
#X floatatom 135 1018 5 0 0 0 - - -;
#X floatatom 135 1050 5 0 0 0 - - -;
#X obj 176 986 hsl 128 15 -1 1 0 0 empty empty empty -2 -8 0 10 -4032
-1 -1 0 1;
#X obj 176 1046 hsl 128 15 -1 1 0 0 empty empty empty -2 -8 0 10 -4032
-1 -1 0 1;
#X obj 113 926 routeOSC /mag/x /mag/y /mag/z;
#X obj 176 1016 hsl 128 15 -1 1 0 0 empty empty empty -2 -8 0 10 -4032
-1 -1 0 1;
#X floatatom 355 986 5 0 0 0 - - -;
#X floatatom 355 1018 5 0 0 0 - - -;
#X floatatom 355 1050 5 0 0 0 - - -;
#X obj 393 986 hsl 128 15 -10 10 0 0 empty empty empty -2 -8 0 10 -4032
-1 -1 0 1;
#X obj 393 1046 hsl 128 15 -10 10 0 0 empty empty empty -2 -8 0 10
-4032 -1 -1 0 1;
#X obj 393 1016 hsl 128 15 -10 10 0 0 empty empty empty -2 -8 0 10
-4032 -1 -1 0 1;
#X obj 343 928 routeOSC /accel/x /accel/y /accel/z;
#X floatatom 578 986 5 0 0 0 - - -;
#X floatatom 578 1018 5 0 0 0 - - -;
#X floatatom 578 1050 5 0 0 0 - - -;
#X obj 618 986 hsl 128 15 -100 100 0 0 empty empty empty -2 -8 0 10
-4032 -1 -1 0 1;
#X obj 618 1046 hsl 128 15 -100 100 0 0 empty empty empty -2 -8 0 10
-4032 -1 -1 0 1;
#X obj 618 1016 hsl 128 15 -100 100 0 0 empty empty empty -2 -8 0 10
-4032 -1 -1 0 1;
#X obj 566 956 routeOSC /gyro/x /gyro/y /gyro/z;
#X text 188 960 MAGNETIC;
#X text 419 960 ACCEL;
#X text 337 982 X;
#X text 335 1014 Y;
#X text 336 1048 Z;
#X text 561 985 X;
#X text 559 1017 Y;
#X text 560 1051 Z;
#X obj 1058 -98 cnv 111 144 211 empty empty empty 20 12 0 14 -228856
-66577 0;
#X floatatom 391 667 5 0 0 0 - - -;
#X floatatom 469 601 5 0 0 0 - - -;
#X floatatom 544 604 5 0 0 0 - - -;
#X obj 521 650 +;
#X floatatom 521 696 5 0 0 0 - - -;
#X obj 546 741 s OCTAVE;
#X obj -75 629 pow 2;
#X obj 308 342 max 0;
#X obj 347 342 max 0;
#X obj 382 328 max 0;
#X obj 418 328 max 0;
#X obj 194 514 s PAD_front;
#X obj 102 500 s PAD_rear;
#X obj 114 348 max 0;
#X obj 153 348 max 0;
#X obj 188 334 max 0;
#X obj 224 334 max 0;
#X obj 598 455 moses 2000;
#X floatatom 646 550 5 0 0 0 - - -;
#X obj 648 503 - 2000;
#X obj 646 572 / 2000;
#X obj 862 743 s PITCH_SHIFT;
#X floatatom 646 595 5 0 0 0 - - -;
#X floatatom 736 527 5 0 0 0 - - -;
#X floatatom 114 420 5 0 0 0 - - -;
#X obj -75 688 outlet;
#X obj -75 652 line 5;
#X obj 214 440 line 100;
#X obj 114 396 line 100;
#X obj 136 674 > 0.1;
#X obj 158 759 +;
#X obj 181 703 > 0.1;
#X obj 216 815 +;
#X obj 239 759 > 0.1;
#X obj 275 823 +;
#X obj 298 767 > 0.1;
#X obj 406 574 /;
#X floatatom 275 846 5 0 0 0 - - -;
#X obj 832 683 list prepend;
#X obj 734 402 tgl 22 0 empty empty empty 17 7 0 10 -260097 -1 -1 0
1;
#X obj 837 711 route 1;
#X floatatom 725 656 5 0 0 0 - - -;
#X text 609 403 roll to pitch shift;
#X obj 705 451 / 180;
#X msg 709 561 1;
#X obj 714 589 +;
#X floatatom 760 404 5 0 0 0 - - -;
#X obj 705 474 * 2;
#X obj 727 709 min 4;
#X obj 727 686 max 0.01;
#X obj 335 -174 list prepend;
#X obj 439 129 tgl 22 0 empty empty empty 17 7 0 10 -159808 -1 -1 1
1;
#X obj 340 -146 route 1;
#X text 395 105 send control data;
#X obj 714 612 pow 1;
#X obj 635 870 route 1;
#X obj 391 689 list prepend 1;
#X obj 635 728 list prepend 2;
#X obj 635 682 / 180;
#X obj 488 382 vradio 15 1 0 3 empty empty empty 0 -8 0 10 -261682
-1 -1 0;
#X text 509 378 none;
#X text 509 393 valves;
#X text 511 411 IMU;
#X text 425 412 PITCH_MOD:;
#X obj 635 705 * 4;
#X obj 544 581 > 2500;
#X obj 469 578 > 1000;
#X obj 406 597 - 0.75;
#X obj 406 620 * 1.5;
#X obj 215 464 * 0.99;
#X obj 114 442 * 0.99;
#X obj 572 -241 counter;
#X obj 567 -283 bng 15 250 50 0 empty empty empty 17 7 0 10 -262144
-1 -1;
#X floatatom 582 124 5 0 0 0 - - -;
#X obj 657 -299 metro 1000;
#X obj 686 -343 tgl 15 0 empty empty empty 17 7 0 10 -262144 -1 -1
1 1;
#X obj 690 -138 i;
#X msg 669 -232 set 0;
#X msg 737 -233 0;
#X obj 651 -270 t b b b;
#X obj 821 -353 loadbang;
#X msg 825 -311 1;
#X text 554 140 pcts / sec;
#X obj 498 56 routeOSC /ribbon/position /ribbon/pressure /ribbon/octave
;
#X obj 588 193 vsl 22 128 -5 5 0 0 empty empty empty 0 -9 0 10 -257985
-1 -1 6350 1;
#X floatatom 588 329 5 0 0 0 - - -;
#X text 584 348 octave;
#X connect 0 0 31 0;
#X connect 0 0 185 0;
#X connect 1 0 0 0;
#X connect 3 0 52 0;
#X connect 5 0 1 0;
#X connect 9 0 11 0;
#X connect 9 1 12 0;
#X connect 9 2 13 0;
#X connect 9 3 14 0;
#X connect 9 4 196 0;
#X connect 11 0 126 0;
#X connect 12 0 127 0;
#X connect 13 0 128 0;
#X connect 14 0 129 0;
#X connect 15 0 34 0;
#X connect 16 0 35 0;
#X connect 17 0 120 0;
#X connect 17 0 142 0;
#X connect 18 0 121 0;
#X connect 18 0 144 0;
#X connect 19 0 122 0;
#X connect 19 0 146 0;
#X connect 20 0 123 0;
#X connect 20 0 148 0;
#X connect 21 0 17 0;
#X connect 21 1 18 0;
#X connect 21 2 19 0;
#X connect 21 3 20 0;
#X connect 23 0 46 0;
#X connect 23 0 141 0;
#X connect 24 0 46 1;
#X connect 25 0 47 1;
#X connect 26 0 48 1;
#X connect 26 0 140 0;
#X connect 27 0 55 0;
#X connect 28 0 55 1;
#X connect 29 0 56 1;
#X connect 30 0 57 1;
#X connect 31 0 58 0;
#X connect 31 0 163 0;
#X connect 32 0 9 0;
#X connect 32 0 21 0;
#X connect 32 0 39 0;
#X connect 32 0 51 0;
#X connect 32 0 78 0;
#X connect 32 0 72 0;
#X connect 32 0 73 0;
#X connect 32 0 74 0;
#X connect 34 0 130 0;
#X connect 34 0 178 0;
#X connect 34 0 179 0;
#X connect 38 0 42 0;
#X connect 39 0 38 0;
#X connect 39 1 40 0;
#X connect 39 2 41 0;
#X connect 40 0 43 0;
#X connect 41 0 44 0;
#X connect 42 0 64 0;
#X connect 42 0 156 0;
#X connect 42 0 171 0;
#X connect 43 0 62 0;
#X connect 44 0 63 0;
#X connect 46 0 47 0;
#X connect 47 0 48 0;
#X connect 48 0 49 0;
#X connect 49 0 54 0;
#X connect 50 0 65 0;
#X connect 51 0 2 0;
#X connect 51 1 3 0;
#X connect 51 2 4 0;
#X connect 54 0 50 0;
#X connect 55 0 56 0;
#X connect 56 0 57 0;
#X connect 57 0 149 0;
#X connect 65 0 119 0;
#X connect 72 0 67 0;
#X connect 73 0 68 0;
#X connect 74 0 69 0;
#X connect 78 0 66 0;
#X connect 83 0 86 0;
#X connect 84 0 89 0;
#X connect 85 0 87 0;
#X connect 88 0 83 0;
#X connect 88 1 84 0;
#X connect 88 2 85 0;
#X connect 90 0 93 0;
#X connect 91 0 95 0;
#X connect 92 0 94 0;
#X connect 96 0 90 0;
#X connect 96 1 91 0;
#X connect 96 2 92 0;
#X connect 97 0 100 0;
#X connect 98 0 102 0;
#X connect 99 0 101 0;
#X connect 103 0 97 0;
#X connect 103 1 98 0;
#X connect 103 2 99 0;
#X connect 113 0 169 0;
#X connect 114 0 116 0;
#X connect 115 0 116 1;
#X connect 116 0 117 0;
#X connect 117 0 118 0;
#X connect 119 0 139 0;
#X connect 120 0 27 0;
#X connect 121 0 28 0;
#X connect 122 0 29 0;
#X connect 123 0 30 0;
#X connect 126 0 23 0;
#X connect 127 0 24 0;
#X connect 128 0 25 0;
#X connect 129 0 26 0;
#X connect 130 1 132 0;
#X connect 131 0 133 0;
#X connect 132 0 131 0;
#X connect 133 0 135 0;
#X connect 136 0 157 0;
#X connect 136 0 158 1;
#X connect 137 0 183 0;
#X connect 139 0 138 0;
#X connect 140 0 182 0;
#X connect 141 0 137 0;
#X connect 142 0 143 0;
#X connect 143 0 145 0;
#X connect 144 0 143 1;
#X connect 145 0 147 0;
#X connect 146 0 145 1;
#X connect 147 0 150 0;
#X connect 148 0 147 1;
#X connect 149 0 180 0;
#X connect 150 0 149 1;
#X connect 151 0 153 0;
#X connect 152 0 151 1;
#X connect 153 0 134 0;
#X connect 154 0 162 0;
#X connect 156 0 160 0;
#X connect 157 0 158 0;
#X connect 158 0 167 0;
#X connect 160 0 136 0;
#X connect 161 0 151 0;
#X connect 161 0 159 0;
#X connect 162 0 161 0;
#X connect 163 0 165 0;
#X connect 164 0 163 1;
#X connect 165 0 32 0;
#X connect 167 0 154 0;
#X connect 168 0 53 0;
#X connect 169 0 168 0;
#X connect 170 0 168 0;
#X connect 171 0 177 0;
#X connect 172 0 168 1;
#X connect 177 0 170 0;
#X connect 178 0 115 0;
#X connect 179 0 114 0;
#X connect 180 0 181 0;
#X connect 181 0 113 0;
#X connect 182 0 124 0;
#X connect 183 0 125 0;
#X connect 184 0 189 1;
#X connect 185 0 184 0;
#X connect 187 0 192 0;
#X connect 188 0 187 0;
#X connect 189 0 186 0;
#X connect 190 0 184 0;
#X connect 191 0 189 1;
#X connect 192 0 191 0;
#X connect 192 1 190 0;
#X connect 192 2 189 0;
#X connect 193 0 194 0;
#X connect 194 0 188 0;
#X connect 196 0 15 0;
#X connect 196 1 16 0;
#X connect 196 2 197 0;
#X connect 197 0 198 0;
#X coords 0 -1 1 1 700 333 1 100 100;
