#N canvas 0 106 1920 974 10;
#X obj 107 46 BINBONG_receiver;
#X floatatom 216 403 5 0 0 0 - - -, f 5;
#X obj 265 349 *;
#X floatatom 423 254 5 0 0 0 - - -, f 5;
#X obj 348 297 - 0.5;
#X floatatom 423 299 5 0 0 0 - - -, f 5;
#X obj 231 447 *;
#X obj 10 793 dac~ 1 2;
#X obj 216 469 +;
#X obj 289 511 phasor~;
#X obj 450 385 moses 0.01;
#X obj 289 568 *~;
#X floatatom 458 457 5 0 0 0 - - -, f 5;
#X obj 216 355 mtof;
#X obj 216 380 - 100;
#X obj 458 479 pow 4;
#X floatatom 458 502 5 0 0 0 - - -, f 5;
#X obj 115 513 lop~;
#X text 535 503 center frequency;
#X text 289 655 q;
#X floatatom 268 674 5 0 0 0 - - -, f 5;
#X obj 134 782 env~ 8192;
#X floatatom 134 811 5 0 0 0 - - -, f 5;
#X obj 164 713 vcf~ 1;
#X text 205 727 optional argument to initialize q;
#X obj 258 785 env~ 8192;
#X floatatom 258 812 5 0 0 0 - - -, f 5;
#X floatatom 493 252 5 0 0 0 - - -, f 5;
#X obj 496 302 abs;
#X obj 529 313 -;
#X msg 553 281 180;
#X floatatom 529 336 5 0 0 0 - - -, f 5;
#X obj 529 358 abs;
#X floatatom 529 381 5 0 0 0 - - -, f 5;
#X obj 529 403 / 180;
#X msg 592 452 \$1 50;
#X obj 529 472 line~;
#X floatatom 529 449 5 0 0 0 - - -, f 5;
#X obj 529 426 * 10000;
#X obj 114 649 *~;
#X floatatom 102 204 5 0 0 0 - - -, f 5;
#X floatatom 102 249 5 0 0 0 - - -, f 5;
#X obj 231 424 * 0;
#X obj 102 226 / 60;
#X connect 0 0 40 0;
#X connect 0 1 13 0;
#X connect 0 2 3 0;
#X connect 0 3 27 0;
#X connect 1 0 8 0;
#X connect 1 0 42 0;
#X connect 3 0 4 0;
#X connect 3 0 10 0;
#X connect 4 0 5 0;
#X connect 5 0 6 1;
#X connect 6 0 8 1;
#X connect 8 0 9 0;
#X connect 9 0 11 0;
#X connect 10 0 12 0;
#X connect 10 1 12 0;
#X connect 11 0 23 0;
#X connect 12 0 15 0;
#X connect 13 0 14 0;
#X connect 14 0 1 0;
#X connect 15 0 16 0;
#X connect 16 0 11 1;
#X connect 20 0 23 2;
#X connect 21 0 22 0;
#X connect 23 0 21 0;
#X connect 23 0 39 0;
#X connect 23 1 25 0;
#X connect 25 0 26 0;
#X connect 27 0 28 0;
#X connect 27 0 30 0;
#X connect 28 0 29 0;
#X connect 29 0 31 0;
#X connect 30 0 29 1;
#X connect 31 0 32 0;
#X connect 32 0 33 0;
#X connect 33 0 34 0;
#X connect 34 0 38 0;
#X connect 35 0 36 0;
#X connect 36 0 23 1;
#X connect 38 0 35 0;
#X connect 38 0 37 0;
#X connect 39 0 7 1;
#X connect 39 0 7 0;
#X connect 40 0 43 0;
#X connect 41 0 39 1;
#X connect 42 0 6 0;
#X connect 43 0 41 0;
