#N canvas 1 106 1918 974 10;
#X obj 94 -199 udpreceive 9999;
#X msg 94 -226 port 9999;
#X floatatom 36 92 5 0 0 0 - - -, f 5;
#X floatatom 36 126 5 0 0 0 - - -, f 5;
#X floatatom 37 158 5 0 0 0 - - -, f 5;
#X obj 94 -250 loadbang;
#X obj -296 4 routeOSC /velocity /note_pitch /note_pressure, f 47
;
#X text 29 77 INTENSITY;
#X text 35 111 NOTE;
#X text 38 144 MOD;
#X floatatom 143 498 5 0 0 0 - - -, f 5;
#X floatatom 143 530 5 0 0 0 - - -, f 5;
#X floatatom 143 562 5 0 0 0 - - -, f 5;
#X obj 67 11 routeOSC /pad/1 /pad/2 /pad/3 /pad/4;
#X text 114 157 PAD;
#X obj 116 191 vsl 15 128 0 1024 0 0 empty empty empty 0 -9 0 10 -4034
-1 -1 6276 1;
#X obj 152 191 vsl 15 128 0 1024 0 0 empty empty empty 0 -9 0 10 -4034
-1 -1 5891 1;
#X obj 188 191 vsl 15 128 0 1024 0 0 empty empty empty 0 -9 0 10 -4034
-1 -1 6486 1;
#X obj 223 191 vsl 15 128 0 1024 0 0 empty empty empty 0 -9 0 10 -4034
-1 -1 6883 1;
#X obj 554 197 vsl 15 128 4000 0 0 0 empty empty empty 0 -9 0 10 -257985
-1 -1 5982 1;
#X obj 593 80 routeOSC /ribbon/position /ribbon/pressure;
#X obj 595 198 vsl 15 128 0 300 0 0 empty empty empty 0 -9 0 10 -257985
-1 -1 42 1;
#X obj 351 192 vsl 15 128 0 4000 0 0 empty empty empty 0 -9 0 10 -258113
-1 -1 8506 1;
#X obj 387 192 vsl 15 128 0 4000 0 0 empty empty empty 0 -9 0 10 -258113
-1 -1 10570 1;
#X obj 423 192 vsl 15 128 0 4000 0 0 empty empty empty 0 -9 0 10 -258113
-1 -1 8925 1;
#X obj 459 192 vsl 15 128 0 4000 0 0 empty empty empty 0 -9 0 10 -258113
-1 -1 6375 1;
#X obj 306 11 routeOSC /valve/1 /valve/2 /valve/3 /valve/4;
#X text 372 157 VALVES;
#X floatatom 116 327 5 0 0 0 - - -, f 5;
#X floatatom 152 327 5 0 0 0 - - -, f 5;
#X floatatom 188 327 5 0 0 0 - - -, f 5;
#X floatatom 223 327 5 0 0 0 - - -, f 5;
#X floatatom 351 328 5 0 0 0 - - -, f 5;
#X floatatom 387 328 5 0 0 0 - - -, f 5;
#X floatatom 423 328 5 0 0 0 - - -, f 5;
#X floatatom 459 328 5 0 0 0 - - -, f 5;
#X obj 184 498 hsl 128 15 -1 1 0 0 empty empty empty -2 -8 0 10 -4032
-1 -1 7915 1;
#X obj 184 558 hsl 128 15 -1 1 0 0 empty empty empty -2 -8 0 10 -4032
-1 -1 6163 1;
#X obj 94 -176 unpackOSC;
#X obj -103 378 routeOSC /mag/x /mag/y /mag/z;
#X obj 184 528 hsl 128 15 -1 1 0 0 empty empty empty -2 -8 0 10 -4032
-1 -1 11505 1;
#X floatatom 363 498 5 0 0 0 - - -, f 5;
#X floatatom 363 530 5 0 0 0 - - -, f 5;
#X floatatom 363 562 5 0 0 0 - - -, f 5;
#X obj 401 498 hsl 128 15 -10 10 0 0 empty empty empty -2 -8 0 10 -4032
-1 -1 689 1;
#X obj 401 558 hsl 128 15 -10 10 0 0 empty empty empty -2 -8 0 10 -4032
-1 -1 6867 1;
#X obj 401 528 hsl 128 15 -10 10 0 0 empty empty empty -2 -8 0 10 -4032
-1 -1 3562 1;
#X obj -165 198 routeOSC /accel/x /accel/y /accel/z;
#X floatatom 586 498 5 0 0 0 - - -, f 5;
#X floatatom 586 530 5 0 0 0 - - -, f 5;
#X floatatom 586 562 5 0 0 0 - - -, f 5;
#X obj 626 498 hsl 128 15 -100 100 0 0 empty empty empty -2 -8 0 10
-4032 -1 -1 6327 1;
#X obj 626 558 hsl 128 15 -100 100 0 0 empty empty empty -2 -8 0 10
-4032 -1 -1 6040 1;
#X obj 626 528 hsl 128 15 -100 100 0 0 empty empty empty -2 -8 0 10
-4032 -1 -1 6449 1;
#X obj -347 146 routeOSC /gyro/x /gyro/y /gyro/z;
#X text 196 472 MAGNETIC;
#X text 427 472 ACCEL;
#X text 645 474 GYRO;
#X text 124 497 X;
#X text 122 529 Y;
#X text 123 563 Z;
#X text 345 494 X;
#X text 343 526 Y;
#X text 344 560 Z;
#X text 569 497 X;
#X text 567 529 Y;
#X text 568 563 Z;
#X obj 95 -134 routeOSC /bong/\$1;
#X text 562 142 RIBBON;
#X floatatom 554 333 5 0 0 0 - - -, f 5;
#X floatatom 595 334 5 0 0 0 - - -, f 5;
#X text 549 170 pos;
#X text 586 171 force;
#X floatatom 669 251 5 0 0 0 - - -, f 5;
#X obj 822 201 routeOSC /orientation/roll /orientation/pitch /orientation/heading
, f 71;
#X floatatom 719 252 5 0 0 0 - - -, f 5;
#X floatatom 764 252 5 0 0 0 - - -, f 5;
#X obj 669 275 vsl 15 128 -180 180 0 0 empty empty empty 0 -9 0 10
-4160 -1 -1 3456 1;
#X obj 719 274 vsl 15 128 -180 180 0 0 empty empty empty 0 -9 0 10
-4160 -1 -1 8620 1;
#X obj 764 276 vsl 15 128 -180 180 0 0 empty empty empty 0 -9 0 10
-4160 -1 -1 270 1;
#X text 711 215 AHRS;
#X obj 388 676 outlet;
#X connect 0 0 38 0;
#X connect 1 0 0 0;
#X connect 5 0 1 0;
#X connect 6 0 2 0;
#X connect 6 1 3 0;
#X connect 6 2 4 0;
#X connect 10 0 36 0;
#X connect 11 0 40 0;
#X connect 12 0 37 0;
#X connect 13 0 15 0;
#X connect 13 1 16 0;
#X connect 13 2 17 0;
#X connect 13 3 18 0;
#X connect 13 4 20 0;
#X connect 15 0 28 0;
#X connect 16 0 29 0;
#X connect 17 0 30 0;
#X connect 18 0 31 0;
#X connect 19 0 69 0;
#X connect 20 0 19 0;
#X connect 20 1 21 0;
#X connect 21 0 70 0;
#X connect 22 0 32 0;
#X connect 23 0 33 0;
#X connect 24 0 34 0;
#X connect 25 0 35 0;
#X connect 26 0 22 0;
#X connect 26 1 23 0;
#X connect 26 2 24 0;
#X connect 26 3 25 0;
#X connect 38 0 67 0;
#X connect 39 0 10 0;
#X connect 39 1 11 0;
#X connect 39 2 12 0;
#X connect 41 0 44 0;
#X connect 42 0 46 0;
#X connect 43 0 45 0;
#X connect 47 0 41 0;
#X connect 47 1 42 0;
#X connect 47 2 43 0;
#X connect 48 0 51 0;
#X connect 49 0 53 0;
#X connect 50 0 52 0;
#X connect 54 0 48 0;
#X connect 54 1 49 0;
#X connect 54 2 50 0;
#X connect 67 0 6 0;
#X connect 67 0 13 0;
#X connect 67 0 26 0;
#X connect 67 0 39 0;
#X connect 67 0 47 0;
#X connect 67 0 54 0;
#X connect 67 0 74 0;
#X connect 73 0 77 0;
#X connect 74 0 73 0;
#X connect 74 1 75 0;
#X connect 74 2 76 0;
#X connect 75 0 78 0;
#X connect 76 0 79 0;
#X coords 0 -1 1 1 700 500 1 100 100;
