#N canvas 515 54 506 519 10;
#X text 48 127 Load your Task;
#X obj 50 350 tgl 25 0 rec_snd rec_rcv empty 13 25 0 15 -262144 -1
-262144 0 1;
#X text 83 357 Record;
#X obj 180 300 cnv 15 60 25 text_snd text_rcv task_3 8 12 0 10 -262144
-1 0;
#X obj 49 300 cnv 15 130 25 empty empty empty 20 12 0 14 -262144 -262144
0;
#X text 55 304 currently chosen:;
#X text 50 40 Turn me on/off;
#X obj 75 63 tgl 50 0 MAIN_snd MAIN_rcv OFF 5 25 1 20 -258699 -1 -1
0 1;
#N canvas 3 54 1009 519 recorder 0;
#X obj 546 -169 inlet;
#X text 544 -191 load tasks;
#N canvas 3 54 1009 519 main_controls 0;
#X obj 561 9 loadbang;
#X obj 234 8 r MAIN_snd;
#X obj 234 45 select 1 0;
#X msg 338 121 \; MAIN_rcv color 13 22 22 \; MAIN_rcv label OFF \;
MAIN_rcv label_pos 5 25 \;;
#X msg 28 122 \; MAIN_rcv color 16 22 22 \; MAIN_rcv label ON \; MAIN_rcv
label_pos 9 25 \;;
#X msg 133 82 \; pd dsp 1 \;;
#X msg 338 81 \; pd dsp 0 \;;
#X msg 28 188 \; rec_rcv set 0 \; rec_rcv color 0 \;;
#X msg 338 187 \; rec_rcv color 0 \;;
#X msg 561 42 \; text_rcv label ... \; rec_rcv color 0 \; MAIN_rcv
label OFF \; MAIN_rcv label_pos 5 25 \; MAIN_rcv label_font 1 20 \;
MAIN_rcv color 13 22 22 \;, f 26;
#X obj 267 294 t b b b;
#X obj 237 433 s rec_rcv;
#X obj 237 404 spigot 0;
#X obj 237 368 0;
#X obj 290 368 0;
#X connect 0 0 9 0;
#X connect 1 0 2 0;
#X connect 2 0 4 0;
#X connect 2 0 5 0;
#X connect 2 0 7 0;
#X connect 2 1 3 0;
#X connect 2 1 6 0;
#X connect 2 1 8 0;
#X connect 2 1 10 0;
#X connect 10 1 14 0;
#X connect 10 2 13 0;
#X connect 12 0 11 0;
#X connect 13 0 12 0;
#X connect 14 0 12 1;
#X restore 724 -158 pd main_controls;
#X text 722 -186 MAIN Toggle Control;
#X obj 45 144 table record;
#X obj 356 125 dac~;
#N canvas 3 54 1009 519 pfeffer_receiver 0;
#X msg 54 61 status;
#X obj 54 88 udpreceive 9999;
#X obj 54 121 unpackOSC;
#X floatatom 408 208 3 0 0 0 - - -, f 3;
#X floatatom 435 208 3 0 0 0 - - -, f 3;
#X floatatom 462 208 3 0 0 0 - - -, f 3;
#X floatatom 489 208 3 0 0 0 - - -, f 3;
#X floatatom 517 208 5 0 0 0 - - -, f 5;
#X obj 408 182 unpack 0 0 0 0 0;
#X floatatom 271 159 9 0 0 0 - - -, f 9;
#X obj 452 162 tgl 15 0 empty empty empty 17 7 0 10 -4034 -1 -1 0 1
;
#X floatatom 331 185 9 0 0 0 - - -, f 9;
#X text 159 157 bytes received:;
#X text 174 187 total bytes received:;
#X text 363 209 from:;
#X obj 271 136 route received total from multicast;
#X text 266 109 Debuging: UDP Connection check;
#X obj 54 239 routeOSC /velocity /note_pitch /note_pressure /dirX_push
/dirY_push, f 70;
#X obj 152 532 mtof;
#X obj 152 607 osc~;
#X obj 151 634 *~;
#X obj 54 277 / 127;
#X obj 269 599 vline~;
#X obj 268 289 t f f b;
#X obj 314 326 float 0;
#X obj 420 405 select 1;
#X text 582 350 Note On;
#X text 582 365 Note Off;
#X text 582 380 New Note;
#X obj 269 474 float 0;
#X obj 573 405 select 0;
#X obj 548 499 float 0;
#X obj 152 569 spigot 0;
#X obj 268 352 expr if($f1!=0 && $f2==0 \, $f1 \, 0) \; if ($f1==0
&& $f2!=0 \, 1 \, 0) \; if ($f1!=0 && $f2!=0 && $f1 != $f2 \, $f1 \,
0) \;;
#X obj 268 405 select 0;
#X obj 269 435 t b f 1;
#X obj 420 447 t 0 b;
#X obj 626 432 t f b;
#X obj 580 458 float 0;
#X obj 548 432 t b b;
#X obj 165 470 spigot 0;
#X msg 117 410 \$1 25;
#X obj 677 465 del 10;
#X msg 269 522 \$1 15;
#X msg 452 528 0 15;
#X msg 548 528 \$1 15;
#X msg 658 536 0 15;
#X obj 151 666 outlet~;
#X obj 689 281 expr pow($f1/127 \, 6);
#X floatatom 39 344 5 0 0 0 - - -, f 5;
#X obj 672 248 expr sqrt($f1/127);
#X connect 0 0 1 0;
#X connect 1 0 2 0;
#X connect 2 0 17 0;
#X connect 8 0 3 0;
#X connect 8 1 4 0;
#X connect 8 2 5 0;
#X connect 8 3 6 0;
#X connect 8 4 7 0;
#X connect 15 0 9 0;
#X connect 15 1 11 0;
#X connect 15 2 8 0;
#X connect 15 3 10 0;
#X connect 17 0 21 0;
#X connect 17 1 23 0;
#X connect 18 0 32 0;
#X connect 19 0 20 0;
#X connect 20 0 47 0;
#X connect 21 0 31 1;
#X connect 21 0 29 1;
#X connect 21 0 41 0;
#X connect 21 0 49 0;
#X connect 22 0 20 1;
#X connect 23 0 33 0;
#X connect 23 1 24 1;
#X connect 23 2 24 0;
#X connect 24 0 33 1;
#X connect 25 0 36 0;
#X connect 29 0 43 0;
#X connect 30 1 37 0;
#X connect 31 0 45 0;
#X connect 32 0 19 0;
#X connect 33 0 34 0;
#X connect 33 1 25 0;
#X connect 33 2 30 0;
#X connect 34 1 35 0;
#X connect 35 0 29 0;
#X connect 35 1 18 0;
#X connect 35 2 32 1;
#X connect 35 2 40 1;
#X connect 36 0 32 1;
#X connect 36 0 40 1;
#X connect 36 1 44 0;
#X connect 37 0 38 1;
#X connect 37 1 46 0;
#X connect 37 1 42 0;
#X connect 38 0 18 0;
#X connect 39 0 31 0;
#X connect 39 1 38 0;
#X connect 40 0 22 0;
#X connect 41 0 40 0;
#X connect 42 0 39 0;
#X connect 43 0 22 0;
#X connect 44 0 22 0;
#X connect 45 0 22 0;
#X connect 46 0 22 0;
#X restore 370 27 pd pfeffer_receiver;
#X obj 292 -286 r rec_snd;
#X obj 292 -259 select 1 0;
#X msg 45 -206 \; rec_rcv color 13;
#X msg 388 -213 \; rec_rcv color 0;
#N canvas 12 54 1009 519 createfile 0;
#X obj 337 46 date, f 15;
#X obj 402 73 time, f 7;
#X obj 337 101 pack f f f f f f;
#X obj 337 155 l2s;
#X msg 337 128 \$1\$2\$3_\$4\$5\$6.txt;
#X obj 337 16 t b b;
#X msg 53 182 /home/pfefferkorn/puredata/Pfeffer_Project/;
#X obj 53 213 l2s;
#X obj 106 138 l2s;
#X obj 53 75 t b a b, f 8;
#X msg 630 142 set;
#X msg 607 115 add \;;
#X obj 53 249 pack s s s s;
#X msg 53 277 add2 \$1\$2\$3\$4;
#X obj 584 61 t b b b;
#X obj 297 -55 inlet;
#X obj 297 -28 t b a b b;
#X msg 106 111 /RecData/;
#X msg 297 322 \; record write /home/pfefferkorn/puredata/Pfeffer_Project/task_3/RecData/2018130_17133.txt
;
#X msg 584 88 add2 record write;
#X connect 0 0 2 0;
#X connect 0 1 2 1;
#X connect 0 2 2 2;
#X connect 1 0 2 3;
#X connect 1 1 2 4;
#X connect 1 2 2 5;
#X connect 2 0 4 0;
#X connect 3 0 12 3;
#X connect 4 0 3 0;
#X connect 5 0 0 0;
#X connect 5 1 1 0;
#X connect 6 0 7 0;
#X connect 7 0 12 0;
#X connect 8 0 12 2;
#X connect 9 0 6 0;
#X connect 9 1 12 1;
#X connect 9 2 17 0;
#X connect 10 0 18 0;
#X connect 11 0 18 0;
#X connect 12 0 13 0;
#X connect 13 0 18 0;
#X connect 14 0 19 0;
#X connect 14 1 11 0;
#X connect 14 2 10 0;
#X connect 15 0 16 0;
#X connect 16 0 18 0;
#X connect 16 1 9 0;
#X connect 16 2 5 0;
#X connect 16 3 14 0;
#X connect 17 0 8 0;
#X connect 19 0 18 0;
#X restore 507 -40 pd createfile;
#X obj 45 117 tabwrite~ record;
#X msg 45 -69 start;
#X msg 371 -40 stop;
#X obj 100 -69 realtime;
#X obj 45 -106 t b b b;
#X obj 325 -213 t b b b;
#X msg 100 -5 \; record resize \$1 \;;
#X text 369 3 receive data from the controller and make notes;
#X msg 570 -86 \; text_rcv label \$1;
#X obj 546 -140 l2s;
#X obj 507 -73 symbol;
#X text 179 -87 allocate a 50 sec array;
#X text 736 11 replay last recording;
#X obj 754 63 tabplay~ record;
#X obj 754 34 bng 15 250 50 0 empty empty empty 17 7 0 10 -262144 -1
-1;
#X obj 100 -42 * 48;
#X msg 168 -69 \; record resize 2.4e+06 \; record const 0 \;;
#X connect 0 0 21 0;
#X connect 6 0 5 0;
#X connect 6 0 5 1;
#X connect 6 0 12 0;
#X connect 7 0 8 0;
#X connect 8 0 9 0;
#X connect 8 0 16 0;
#X connect 8 1 10 0;
#X connect 8 1 17 0;
#X connect 13 0 12 0;
#X connect 14 0 12 0;
#X connect 15 0 27 0;
#X connect 16 0 13 0;
#X connect 16 1 15 0;
#X connect 16 2 28 0;
#X connect 17 0 22 0;
#X connect 17 1 15 1;
#X connect 17 2 14 0;
#X connect 21 0 20 0;
#X connect 21 0 22 1;
#X connect 22 0 11 0;
#X connect 26 0 25 0;
#X connect 27 0 18 0;
#X coords 0 519 1 518 85 60 0;
#X restore 51 273 pd recorder;
#X msg 51 150 task_1;
#X msg 109 150 task_2;
#X msg 166 150 task_3;
#X msg 226 150 task_4;
#X msg 286 150 task_5;
#X msg 184 219 task_6;
#X msg 243 220 task_7;
#X msg 299 220 task_8;
#X msg 356 220 task_9;
#X msg 416 220 task_10;
#X connect 9 0 8 0;
#X connect 10 0 8 0;
#X connect 11 0 8 0;
#X connect 12 0 8 0;
#X connect 13 0 8 0;
#X connect 14 0 8 0;
#X connect 15 0 8 0;
#X connect 16 0 8 0;
#X connect 17 0 8 0;
#X connect 18 0 8 0;
