#N canvas 586 297 1333 597 10;
#X obj 54 88 udpreceive 9999;
#X obj 54 121 unpackOSC;
#X floatatom 408 208 3 0 0 0 - - -, f 3;
#X floatatom 435 208 3 0 0 0 - - -, f 3;
#X floatatom 462 208 3 0 0 0 - - -, f 3;
#X floatatom 489 208 3 0 0 0 - - -, f 3;
#X floatatom 517 208 5 0 0 0 - - -, f 5;
#X obj 408 182 unpack 0 0 0 0 0;
#X floatatom 271 159 9 0 0 0 - - -, f 9;
#X obj 452 162 tgl 15 0 empty empty empty 17 7 0 10 -4034 -1 -1 0 1
;
#X floatatom 331 185 9 0 0 0 - - -, f 9;
#X text 159 157 bytes received:;
#X text 174 187 total bytes received:;
#X text 363 209 from:;
#X obj 271 136 route received total from multicast;
#X text 266 109 Debuging: UDP Connection check;
#X obj 54 239 routeOSC /velocity /note_pitch /note_pressure /dirX_push
/dirY_push, f 70;
#X obj 152 532 mtof;
#X obj 152 607 osc~;
#X obj 151 634 *~;
#X obj 54 277 / 127;
#X obj 269 599 vline~;
#X obj 268 289 t f f b;
#X obj 314 326 float 0;
#X obj 420 405 select 1;
#X text 582 350 Note On;
#X text 582 365 Note Off;
#X text 582 380 New Note;
#X obj 269 474 float 0;
#X obj 573 405 select 0;
#X obj 548 499 float 0;
#X obj 152 569 spigot 0;
#X obj 268 352 expr if($f1!=0 && $f2==0 \, $f1 \, 0) \; if ($f1==0
&& $f2!=0 \, 1 \, 0) \; if ($f1!=0 && $f2!=0 && $f1 != $f2 \, $f1 \,
0) \;;
#X obj 268 405 select 0;
#X obj 269 435 t b f 1;
#X obj 420 447 t 0 b;
#X obj 626 432 t f b;
#X obj 580 458 float 0;
#X obj 548 432 t b b;
#X obj 165 470 spigot 0;
#X msg 117 410 \$1 25;
#X obj 677 465 del 10;
#X msg 269 522 \$1 15;
#X msg 452 528 0 15;
#X msg 548 528 \$1 15;
#X msg 658 536 0 15;
#X obj 151 666 outlet~;
#X obj 689 281 expr pow($f1/127 \, 6);
#X floatatom 39 344 5 0 0 0 - - -, f 5;
#X obj 672 248 expr sqrt($f1/127);
#X msg 54 61 port 9999;
#X obj 929 154 udpreceive;
#X msg 929 125 port 9999;
#X obj 929 177 unpackOSC;
#X obj 929 262 print;
#X obj 929 200 routeOSC /note_pressure;
#X connect 0 0 1 0;
#X connect 1 0 16 0;
#X connect 7 0 2 0;
#X connect 7 1 3 0;
#X connect 7 2 4 0;
#X connect 7 3 5 0;
#X connect 7 4 6 0;
#X connect 14 0 8 0;
#X connect 14 1 10 0;
#X connect 14 2 7 0;
#X connect 14 3 9 0;
#X connect 16 0 20 0;
#X connect 16 1 22 0;
#X connect 17 0 31 0;
#X connect 18 0 19 0;
#X connect 19 0 46 0;
#X connect 20 0 30 1;
#X connect 20 0 28 1;
#X connect 20 0 40 0;
#X connect 20 0 48 0;
#X connect 21 0 19 1;
#X connect 22 0 32 0;
#X connect 22 1 23 1;
#X connect 22 2 23 0;
#X connect 23 0 32 1;
#X connect 24 0 35 0;
#X connect 28 0 42 0;
#X connect 29 1 36 0;
#X connect 30 0 44 0;
#X connect 31 0 18 0;
#X connect 32 0 33 0;
#X connect 32 1 24 0;
#X connect 32 2 29 0;
#X connect 33 1 34 0;
#X connect 34 0 28 0;
#X connect 34 1 17 0;
#X connect 34 2 31 1;
#X connect 34 2 39 1;
#X connect 35 0 31 1;
#X connect 35 0 39 1;
#X connect 35 1 43 0;
#X connect 36 0 37 1;
#X connect 36 1 45 0;
#X connect 36 1 41 0;
#X connect 37 0 17 0;
#X connect 38 0 30 0;
#X connect 38 1 37 0;
#X connect 39 0 21 0;
#X connect 40 0 39 0;
#X connect 41 0 38 0;
#X connect 42 0 21 0;
#X connect 43 0 21 0;
#X connect 44 0 21 0;
#X connect 45 0 21 0;
#X connect 50 0 0 0;
#X connect 51 0 53 0;
#X connect 52 0 51 0;
#X connect 53 0 55 0;
#X connect 55 0 54 0;
